<?xml version="1.0" standalone="no"?>
<!DOCTYPE svg PUBLIC "-//W3C//DTD SVG 20010904//EN"
 "http://www.w3.org/TR/2001/REC-SVG-20010904/DTD/svg10.dtd">
<svg version="1.0" xmlns="http://www.w3.org/2000/svg"
 width="233.472474pt" height="147.600795pt" viewBox="0 0 233.472474 147.600795"
 preserveAspectRatio="xMidYMid meet">
<metadata>
Created by potrace 1.12, written by Peter Selinger 2001-2015
</metadata>
<g transform="translate(-11.527526,201.668768) scale(0.100000,-0.100000)"
fill="#37afca" stroke="none">
<path d="M1218 1930 c-37 -50 -91 -137 -119 -195 l-52 -103 -76 53 c-66 46
-151 95 -165 95 -8 0 -46 -157 -52 -217 -4 -34 -10 -66 -13 -71 -4 -7 -26 -4
-64 8 -58 19 -138 36 -214 44 -41 4 -43 3 -43 -22 1 -15 7 -63 15 -107 8 -44
15 -86 15 -92 0 -9 -22 -13 -77 -13 -108 0 -153 -9 -153 -29 0 -13 26 -78 77
-198 3 -7 0 -13 -7 -13 -12 0 -146 -55 -169 -69 -12 -8 -6 -21 29 -68 133
-177 284 -290 471 -355 92 -32 98 -33 259 -32 151 0 173 2 253 27 49 15 101
34 117 42 24 13 33 12 81 -7 164 -63 359 -84 509 -54 145 30 280 96 404 200
47 39 206 222 206 237 0 9 -91 51 -158 74 -32 10 -51 22 -48 29 55 128 76 190
67 199 -5 5 -53 12 -105 15 -53 2 -96 7 -96 11 0 3 7 42 15 86 8 44 14 93 15
109 l0 29 -79 -6 c-43 -3 -119 -19 -168 -35 l-91 -29 -6 66 c-6 60 -41 215
-52 233 -6 10 -105 -40 -169 -86 -55 -40 -65 -43 -65 -22 0 47 -180 341 -215
353 -6 1 -40 -38 -77 -87z m178 -93 c192 -316 187 -678 -16 -1003 -27 -43 -60
-92 -74 -109 l-24 -30 -23 20 c-37 33 -135 189 -168 268 -51 125 -65 197 -64
342 0 111 4 143 27 220 43 145 97 250 194 378 l44 58 28 -33 c16 -18 50 -68
76 -111z m-514 -128 c29 -17 76 -49 104 -70 l51 -39 -18 -78 c-9 -42 -20 -103
-24 -134 l-6 -57 -58 42 c-31 23 -80 53 -109 66 -39 18 -52 30 -52 45 1 51 45
256 55 256 2 0 28 -14 57 -31z m863 -41 c9 -40 19 -105 22 -144 5 -68 5 -72
-17 -79 -12 -4 -57 -31 -100 -60 l-78 -53 -7 76 c-3 43 -13 106 -21 142 l-15
65 28 23 c31 26 154 102 165 102 3 0 14 -33 23 -72z m-1130 -180 c95 -23 200
-70 281 -126 84 -57 94 -71 105 -148 14 -97 36 -178 70 -252 16 -36 29 -66 29
-68 0 -2 -30 19 -66 47 -123 93 -262 149 -409 164 l-67 8 -25 56 c-29 65 -67
210 -77 293 l-7 56 43 -5 c24 -3 79 -14 123 -25z m1480 -85 c-17 -96 -48 -198
-75 -253 -18 -35 -20 -36 -108 -48 -154 -20 -308 -88 -414 -181 -25 -23 -49
-41 -52 -41 -4 0 7 26 23 58 37 73 79 210 89 287 7 57 9 61 66 107 32 26 88
62 125 82 120 62 351 120 359 89 2 -7 -4 -52 -13 -100z m-1647 -119 c12 -4 22
-14 22 -23 0 -9 13 -46 29 -82 l28 -67 -81 -10 c-45 -6 -88 -13 -97 -17 -12
-4 -24 13 -51 72 -20 43 -38 86 -42 95 -6 19 9 25 79 31 75 7 90 7 113 1z
m1826 -15 c8 -7 -45 -152 -63 -171 -3 -4 -45 -2 -91 4 l-85 12 35 88 35 89 80
-7 c44 -3 84 -10 89 -15z m-1582 -203 c138 -27 253 -83 366 -181 63 -54 152
-152 183 -202 l20 -32 -38 -16 c-21 -9 -80 -28 -132 -41 -115 -29 -282 -33
-394 -8 -145 32 -311 129 -423 246 -54 56 -124 141 -124 150 0 12 139 61 220
78 104 23 224 25 322 6z m1548 -16 c90 -26 172 -60 168 -70 -2 -5 -31 -42 -65
-84 -135 -163 -309 -273 -496 -313 -90 -19 -295 -13 -382 11 -70 19 -165 56
-165 64 0 7 45 67 100 130 105 125 279 234 433 274 99 25 300 19 407 -12z"/>
</g>
</svg>
