<?xml version="1.0" encoding="UTF-8" standalone="yes"?>
<!-- Created with sK1/UniConvertor (http://sk1project.org/) -->
<svg xmlns="http://www.w3.org/2000/svg" xmlns:xlink="http://www.w3.org/1999/xlink"
  width="354.4pt" height="450.4pt" viewBox="0 0 354.4 450.4"
  fill-rule="evenodd">
<g>
<path style="stroke:none; fill:#ffffff" d="M 0 0L 0 450.4L 354.4 450.4L 354.4 0L 0 0z"/>
<path style="stroke:none; fill:#c1d3b8" d="M 164 32.8L 164 33.6L 172 33.6C 169.47 32.5381 166.731 32.8003 164 32.8z"/>
<path style="stroke:none; fill:#dfebdd" d="M 172 32.8L 172 33.6L 174.4 33.6C 173.402 33.0522 173.162 33.0009 172 32.8z"/>
<path style="stroke:none; fill:#abc59f" d="M 159.2 33.6L 159.2 34.4L 161.6 34.4C 160.602 33.8521 160.362 33.801 159.2 33.6z"/>
<path style="stroke:none; fill:#91b583" d="M 161.6 33.9395C 129.191 38.2074 101.25 79.7603 109.408 112C 116.761 141.06 149.841 157.678 178.4 154.171C 239.878 146.621 247.419 52.9564 187.2 35.8877C 179.017 33.5681 170.059 32.8255 161.6 33.9395z"/>
<path style="stroke:none; fill:#cdddc5" d="M 178.134 33.8666C 177.778 34.2222 178.622 34.1778 178.666 34.1334C 179.022 33.7776 178.178 33.8222 178.134 33.8666z"/>
<path style="stroke:none; fill:#d2e0ce" d="M 186.134 35.4666C 185.778 35.8222 186.622 35.7777 186.666 35.7334C 187.022 35.3777 186.178 35.4221 186.134 35.4666z"/>
<path style="stroke:none; fill:#c5d6bc" d="M 188.8 36L 189.6 36.8L 188.8 36z"/>
<path style="stroke:none; fill:#b3c9a9" d="M 147.734 37.0666C 147.378 37.4222 148.222 37.3777 148.266 37.3333C 148.622 36.9778 147.778 37.0222 147.734 37.0666z"/>
<path style="stroke:none; fill:#c5d6bc" d="M 194.4 38.4L 195.2 39.2L 194.4 38.4M 199.2 40.8L 200 41.6L 199.2 40.8z"/>
<path style="stroke:none; fill:#cdddc5" d="M 139.2 41.6L 140 42.4L 139.2 41.6z"/>
<path style="stroke:none; fill:#c5d6bc" d="M 203.2 43.2L 204 44L 203.2 43.2M 204 44L 204.8 44.8L 204 44M 133.6 46.4L 134.4 47.2L 133.6 46.4M 132 48L 132.8 48.8L 132 48z"/>
<path style="stroke:none; fill:#cdddc5" d="M 130.4 49.6L 131.2 50.4L 130.4 49.6z"/>
<path style="stroke:none; fill:#d2e0ce" d="M 157.334 49.8666C 156.978 50.2224 157.822 50.1777 157.866 50.1334C 158.222 49.7779 157.378 49.8221 157.334 49.8666z"/>
<path style="stroke:none; fill:#ffffff" d="M 158.4 49.9426C 132.306 53.7209 117.297 93.592 128.785 116C 137.27 132.55 160.333 138.22 177.6 135.76C 183.372 134.938 189.552 134.166 194.4 130.69C 209.791 119.655 216.422 91.3608 208.541 74.4C 199.996 56.0102 177.838 47.1279 158.4 49.9426z"/>
<path style="stroke:none; fill:#cdddc5" d="M 172.8 49.6L 172.8 50.4L 175.2 50.4C 174.202 49.8521 173.962 49.801 172.8 49.6z"/>
<path style="stroke:none; fill:#c5d6bc" d="M 129.6 50.4L 130.4 51.2L 129.6 50.4z"/>
<path style="stroke:none; fill:#d2e0ce" d="M 179.2 51.2L 180 52L 179.2 51.2z"/>
<path style="stroke:none; fill:#cdddc5" d="M 146.4 53.6L 147.2 54.4L 146.4 53.6z"/>
<path style="stroke:none; fill:#c5d6bc" d="M 126.4 54.4L 127.2 55.2L 126.4 54.4z"/>
<path style="stroke:none; fill:#c1d3b8" d="M 144 55.2L 144.8 56L 144 55.2z"/>
<path style="stroke:none; fill:#d2e0ce" d="M 191.2 56L 192 56.8L 191.2 56z"/>
<path style="stroke:none; fill:#c5d6bc" d="M 124.8 56.8L 125.6 57.6L 124.8 56.8z"/>
<path style="stroke:none; fill:#c1d3b8" d="M 142.4 56.8L 143.2 57.6L 142.4 56.8z"/>
<path style="stroke:none; fill:#d2e0ce" d="M 193.6 57.6L 194.4 58.4L 193.6 57.6M 196 59.2L 196.8 60L 196 59.2z"/>
<path style="stroke:none; fill:#cdddc5" d="M 137.6 61.6L 138.4 62.4L 137.6 61.6z"/>
<path style="stroke:none; fill:#c5d6bc" d="M 199.2 61.6L 200 62.4L 199.2 61.6M 200.8 63.2L 201.6 64L 200.8 63.2z"/>
<path style="stroke:none; fill:#bcd2b6" d="M 223.2 66.4L 224 67.2L 223.2 66.4z"/>
<path style="stroke:none; fill:#cdddc5" d="M 133.6 67.2L 134.4 68L 133.6 67.2z"/>
<path style="stroke:none; fill:#c5d6bc" d="M 204 67.2L 204.8 68L 204 67.2M 132.8 68.8L 133.6 69.6L 132.8 68.8z"/>
<path style="stroke:none; fill:#cdddc5" d="M 207.2 72L 208 72.8L 207.2 72z"/>
<path style="stroke:none; fill:#c5d6bc" d="M 208 73.6L 208.8 74.4L 208 73.6z"/>
<path style="stroke:none; fill:#c1d3b8" d="M 113.6 75.2L 114.4 76L 113.6 75.2M 208.8 75.2L 209.6 76L 208.8 75.2z"/>
<path style="stroke:none; fill:#c5d6bc" d="M 227.466 76.5334C 227.422 76.5778 227.378 77.4221 227.734 77.0666C 227.778 77.0222 227.822 76.1778 227.466 76.5334z"/>
<path style="stroke:none; fill:#cdddc5" d="M 112 79.2L 112.8 80L 112 79.2z"/>
<path style="stroke:none; fill:#dfebdd" d="M 210.666 80.5336C 210.622 80.5776 210.578 81.4224 210.934 81.0664C 210.978 81.0224 211.022 80.1776 210.666 80.5336z"/>
<path style="stroke:none; fill:#b3c9a9" d="M 110.666 84.5336C 110.622 84.5776 110.578 85.4224 110.934 85.0664C 110.978 85.0224 111.022 84.1776 110.666 84.5336z"/>
<path style="stroke:none; fill:#dbe7d4" d="M 228.8 84L 228.8 86.4L 229.6 86.4C 229.399 85.2384 229.348 84.9984 228.8 84M 211.466 85.3336C 211.422 85.3776 211.378 86.2224 211.734 85.8664C 211.778 85.8224 211.822 84.9776 211.466 85.3336z"/>
<path style="stroke:none; fill:#cdddc5" d="M 126.666 86.1336C 126.622 86.1776 126.578 87.0224 126.934 86.6664C 126.978 86.6224 127.022 85.7776 126.666 86.1336z"/>
<path style="stroke:none; fill:#abc59f" d="M 228.8 86.4L 228.8 92.8L 229.6 92.8C 229.594 90.532 229.678 88.4904 228.8 86.4z"/>
<path style="stroke:none; fill:#bcd2b6" d="M 108 94.4L 108 98.4L 108.8 98.4C 108.73 96.8288 108.623 95.8152 108 94.4z"/>
<path style="stroke:none; fill:#c1d3b8" d="M 124.8 94.4L 124.8 97.6L 125.6 97.6C 125.461 96.252 125.346 95.6048 124.8 94.4z"/>
<path style="stroke:none; fill:#dbe7d4" d="M 211.2 94.4L 211.2 96.8L 212 96.8C 211.799 95.6384 211.748 95.3984 211.2 94.4z"/>
<path style="stroke:none; fill:#c1d3b8" d="M 229.066 96.5336C 229.022 96.5776 228.978 97.4224 229.334 97.0664C 229.378 97.0224 229.422 96.1776 229.066 96.5336z"/>
<path style="stroke:none; fill:#d2e0ce" d="M 124.8 97.6L 124.8 104L 125.6 104C 125.594 101.731 125.678 99.6904 124.8 97.6z"/>
<path style="stroke:none; fill:#e7ede2" d="M 228.8 97.6L 228.8 101.6L 229.6 101.6C 229.53 100.029 229.423 99.0152 228.8 97.6z"/>
<path style="stroke:none; fill:#dfebdd" d="M 210.4 99.2L 210.4 101.6L 211.2 101.6C 210.999 100.438 210.948 100.198 210.4 99.2M 108 104L 108 108.8L 108.8 108.8C 108.762 106.998 108.699 105.642 108 104z"/>
<path style="stroke:none; fill:#cdddc5" d="M 227.2 106.4L 227.2 108.8L 228 108.8C 227.799 107.638 227.748 107.398 227.2 106.4M 127.2 112.8L 128 113.6L 127.2 112.8M 225.866 113.334C 225.822 113.378 225.778 114.222 226.134 113.866C 226.178 113.822 226.222 112.978 225.866 113.334z"/>
<path style="stroke:none; fill:#c5d6bc" d="M 128 115.2L 128.8 116L 128 115.2z"/>
<path style="stroke:none; fill:#d2e0ce" d="M 204.8 116L 205.6 116.8L 204.8 116z"/>
<path style="stroke:none; fill:#bcd2b6" d="M 129.6 117.6L 130.4 118.4L 129.6 117.6z"/>
<path style="stroke:none; fill:#c5d6bc" d="M 113.6 123.2L 114.4 124L 113.6 123.2z"/>
<path style="stroke:none; fill:#c1d3b8" d="M 200.8 123.2L 201.6 124L 200.8 123.2z"/>
<path style="stroke:none; fill:#c5d6bc" d="M 135.2 124L 136 124.8L 135.2 124z"/>
<path style="stroke:none; fill:#bcd2b6" d="M 114.4 124.8L 115.2 125.6L 114.4 124.8z"/>
<path style="stroke:none; fill:#c1d3b8" d="M 220 125.6L 220.8 126.4L 220 125.6z"/>
<path style="stroke:none; fill:#c5d6bc" d="M 137.6 126.4L 138.4 127.2L 137.6 126.4z"/>
<path style="stroke:none; fill:#bcd2b6" d="M 118.4 130.4L 119.2 131.2L 118.4 130.4z"/>
<path style="stroke:none; fill:#c5d6bc" d="M 191.2 132L 192 132.8L 191.2 132M 151.2 132.8L 152 133.6L 151.2 132.8z"/>
<path style="stroke:none; fill:#cdddc5" d="M 215.2 132.8L 216 133.6L 215.2 132.8z"/>
<path style="stroke:none; fill:#c5d6bc" d="M 120.8 133.6L 121.6 134.4L 120.8 133.6M 188 133.6L 188.8 134.4L 188 133.6z"/>
<path style="stroke:none; fill:#cdddc5" d="M 121.6 134.4L 122.4 135.2L 121.6 134.4M 156.534 134.666C 156.178 135.022 157.022 134.978 157.066 134.934C 157.422 134.578 156.578 134.622 156.534 134.666z"/>
<path style="stroke:none; fill:#eef5ec" d="M 181.6 134.4L 181.6 135.2L 184.8 135.2C 183.595 134.654 182.948 134.539 181.6 134.4z"/>
<path style="stroke:none; fill:#cdddc5" d="M 162.934 135.466C 162.578 135.822 163.422 135.778 163.466 135.734C 163.822 135.378 162.978 135.422 162.934 135.466z"/>
<path style="stroke:none; fill:#c5d6bc" d="M 212 136.8L 212.8 137.6L 212 136.8z"/>
<path style="stroke:none; fill:#cdddc5" d="M 128.8 140.8L 129.6 141.6L 128.8 140.8z"/>
<path style="stroke:none; fill:#c5d6bc" d="M 130.4 141.6L 131.2 142.4L 130.4 141.6z"/>
<path style="stroke:none; fill:#d2e0ce" d="M 207.2 141.6L 208 142.4L 207.2 141.6z"/>
<path style="stroke:none; fill:#cdddc5" d="M 206.4 142.4L 207.2 143.2L 206.4 142.4z"/>
<path style="stroke:none; fill:#c5d6bc" d="M 132.8 143.2L 133.6 144L 132.8 143.2z"/>
<path style="stroke:none; fill:#bcd2b6" d="M 136 144.8L 136.8 145.6L 136 144.8z"/>
<path style="stroke:none; fill:#c5d6bc" d="M 138.4 146.4L 139.2 147.2L 138.4 146.4z"/>
<path style="stroke:none; fill:#b8cfad" d="M 149.334 150.666C 148.978 151.022 149.822 150.978 149.866 150.934C 150.222 150.578 149.378 150.622 149.334 150.666z"/>
<path style="stroke:none; fill:#cdddc5" d="M 153.6 152L 154.4 152.8L 153.6 152z"/>
<path style="stroke:none; fill:#dbe7d4" d="M 156.8 152.8L 156.8 153.6L 159.2 153.6C 158.202 153.052 157.962 153.001 156.8 152.8z"/>
<path style="stroke:none; fill:#c5d6bc" d="M 184.534 153.066C 184.178 153.422 185.022 153.378 185.066 153.334C 185.422 152.978 184.578 153.022 184.534 153.066z"/>
<path style="stroke:none; fill:#dfebdd" d="M 186.134 153.066C 185.778 153.422 186.622 153.378 186.666 153.334C 187.022 152.978 186.178 153.022 186.134 153.066z"/>
<path style="stroke:none; fill:#dbe7d4" d="M 162.4 153.6L 162.4 154.4L 164.8 154.4C 163.802 153.852 163.562 153.801 162.4 153.6z"/>
<path style="stroke:none; fill:#c1d3b8" d="M 179.2 153.6L 179.2 154.4L 181.6 154.4C 180.602 153.852 180.362 153.801 179.2 153.6z"/>
<path style="stroke:none; fill:#c5d6bc" d="M 172.8 160.8L 172.8 161.6L 176.8 161.6C 175.385 160.977 174.371 160.87 172.8 160.8z"/>
<path style="stroke:none; fill:#dbe7d4" d="M 176.8 160.8L 176.8 161.6L 183.2 161.6C 181.11 160.722 179.068 160.806 176.8 160.8z"/>
<path style="stroke:none; fill:#e7ede2" d="M 163.2 161.6L 163.2 162.4L 165.6 162.4C 164.602 161.852 164.362 161.801 163.2 161.6z"/>
<path style="stroke:none; fill:#91b583" d="M 172 407.2C 179.351 409.383 180.478 415.409 185.112 420.571C 190.886 427.003 199.59 430.914 208 432.429C 228.928 436.195 250.783 428.991 270.4 422.675C 284.21 418.229 298.544 413.727 310.4 405.088C 327.986 392.274 337.179 373.464 326.4 352.8C 336.376 347.512 338.27 332.2 330.137 324.274C 326.067 320.31 319.679 318.786 315.2 314.96C 299.13 301.232 285.376 285.067 275.387 266.4C 267.282 251.255 265.326 234.314 259.302 218.4C 251.73 198.398 235.348 178.926 216 169.612C 177.149 150.909 124.129 164.117 101.541 201.6C 91.7784 217.8 88.6416 237.69 81.804 255.2C 76.6957 268.281 68.3615 280.299 59.6407 291.2C 52.419 300.227 42.8666 313.13 32.7679 319.029C 25.331 323.373 17.4639 319.269 11.7821 328.003C 7.43192 334.69 9.83272 343.97 14.7716 349.526C 16.8882 351.906 20.5912 353.572 21.4537 356.832C 22.3473 360.21 20.3444 363.845 20.0747 367.2C 19.5655 373.535 20.3613 380.586 23.0395 386.4C 27.7999 396.734 38.3206 404.701 48 410.12C 71.354 423.197 103.582 432.8 130.4 432.8C 147.017 432.8 170.25 427.243 172 407.2z"/>
<path style="stroke:none; fill:#abc59f" d="M 186.4 161.6L 186.4 162.4L 188.8 162.4C 187.802 161.852 187.562 161.801 186.4 161.6z"/>
<path style="stroke:none; fill:#cdddc5" d="M 188.8 161.6L 188.8 162.4L 191.2 162.4C 190.202 161.852 189.962 161.801 188.8 161.6z"/>
<path style="stroke:none; fill:#adc8a3" d="M 159.734 162.666C 159.378 163.022 160.222 162.978 160.266 162.934C 160.622 162.578 159.778 162.622 159.734 162.666z"/>
<path style="stroke:none; fill:#cdddc5" d="M 197.6 163.2L 197.6 164L 200 164C 199.002 163.452 198.762 163.401 197.6 163.2z"/>
<path style="stroke:none; fill:#c1d3b8" d="M 150.4 164.8L 151.2 165.6L 150.4 164.8z"/>
<path style="stroke:none; fill:#c5d6bc" d="M 147.734 165.866C 147.378 166.222 148.222 166.178 148.266 166.134C 148.622 165.778 147.778 165.822 147.734 165.866z"/>
<path style="stroke:none; fill:#cdddc5" d="M 206.134 165.866C 205.778 166.222 206.622 166.178 206.666 166.134C 207.022 165.778 206.178 165.822 206.134 165.866M 144.8 166.4L 145.6 167.2L 144.8 166.4z"/>
<path style="stroke:none; fill:#c1d3b8" d="M 214.4 168.8L 215.2 169.6L 214.4 168.8M 136.8 169.6L 137.6 170.4L 136.8 169.6z"/>
<path style="stroke:none; fill:#cdddc5" d="M 135.2 170.4L 136 171.2L 135.2 170.4z"/>
<path style="stroke:none; fill:#c5d6bc" d="M 217.6 170.4L 218.4 171.2L 217.6 170.4z"/>
<path style="stroke:none; fill:#c1d3b8" d="M 131.2 172.8L 132 173.6L 131.2 172.8M 221.6 172.8L 222.4 173.6L 221.6 172.8M 225.6 175.2L 226.4 176L 225.6 175.2z"/>
<path style="stroke:none; fill:#cdddc5" d="M 125.6 176L 126.4 176.8L 125.6 176z"/>
<path style="stroke:none; fill:#d2e0ce" d="M 122.4 178.4L 123.2 179.2L 122.4 178.4z"/>
<path style="stroke:none; fill:#b8cfad" d="M 163.734 178.666C 163.378 179.022 164.222 178.978 164.266 178.934C 164.622 178.578 163.778 178.622 163.734 178.666z"/>
<path style="stroke:none; fill:#e7ede2" d="M 164.8 178.4L 164.8 179.2L 168.8 179.2C 167.385 178.577 166.371 178.47 164.8 178.4z"/>
<path style="stroke:none; fill:#ffffff" d="M 136.8 324.8L 211.2 324.8C 215.326 302.574 212.791 276.313 212.8 253.6C 212.802 250.086 213.965 231.774 220.746 234.541C 229.259 238.014 226.559 258.447 229.859 265.6C 243.15 294.406 258.317 320.799 288 334.587C 295.853 338.234 315.167 348.217 320.8 336.8C 291.837 326.938 265.664 293.706 255.606 265.6C 244.593 234.819 237.014 191.65 200 180.73C 191.742 178.294 182.93 178.359 174.4 178.401C 166.956 178.437 159.04 179.282 152 181.791C 139.715 186.171 127.788 192.81 119.614 203.2C 111.866 213.05 109.204 225.208 105.258 236.8C 98.676 256.136 91.4408 276.496 78.7889 292.8C 65.4978 309.928 49.6026 328.163 28.0037 332.182C 24.7806 332.782 22.0793 335.807 24.4864 338.925C 26.9598 342.128 31.6254 341.641 35.2 341.597C 45.6086 341.47 57.4465 335.477 66.4 330.511C 92.7456 315.898 100.826 289.839 115.107 265.6C 119.098 258.827 119.242 252.172 121.215 244.8C 121.781 242.686 123.062 239.283 125.601 238.905C 129.807 238.278 131.24 246.819 131.831 249.6C 134.519 262.24 135.2 275.914 135.2 288.8C 135.2 300.873 136.701 312.797 136.8 324.8z"/>
<path style="stroke:none; fill:#dbe7d4" d="M 188 178.4L 188 179.2L 192 179.2C 190.585 178.577 189.571 178.47 188 178.4z"/>
<path style="stroke:none; fill:#cdddc5" d="M 229.6 178.4L 230.4 179.2L 229.6 178.4z"/>
<path style="stroke:none; fill:#dfebdd" d="M 156.534 180.266C 156.178 180.622 157.022 180.578 157.066 180.534C 157.422 180.178 156.578 180.222 156.534 180.266z"/>
<path style="stroke:none; fill:#bcd2b6" d="M 198.934 180.266C 198.578 180.622 199.422 180.578 199.466 180.534C 199.822 180.178 198.978 180.222 198.934 180.266z"/>
<path style="stroke:none; fill:#c1d3b8" d="M 119.2 180.8L 120 181.6L 119.2 180.8z"/>
<path style="stroke:none; fill:#dbe7d4" d="M 150.934 181.866C 150.578 182.222 151.422 182.178 151.466 182.134C 151.822 181.778 150.978 181.822 150.934 181.866z"/>
<path style="stroke:none; fill:#c5d6bc" d="M 203.2 181.6L 204 182.4L 203.2 181.6z"/>
<path style="stroke:none; fill:#cdddc5" d="M 204.8 182.4L 205.6 183.2L 204.8 182.4z"/>
<path style="stroke:none; fill:#d2e0ce" d="M 234.4 182.4L 235.2 183.2L 234.4 182.4z"/>
<path style="stroke:none; fill:#cdddc5" d="M 144 184.8L 144.8 185.6L 144 184.8z"/>
<path style="stroke:none; fill:#dfebdd" d="M 142.134 185.866C 141.778 186.222 142.622 186.178 142.666 186.134C 143.022 185.778 142.178 185.822 142.134 185.866z"/>
<path style="stroke:none; fill:#bcd2b6" d="M 210.4 185.6L 211.2 186.4L 210.4 185.6z"/>
<path style="stroke:none; fill:#c1d3b8" d="M 138.4 187.2L 139.2 188L 138.4 187.2z"/>
<path style="stroke:none; fill:#cdddc5" d="M 212.8 187.2L 213.6 188L 212.8 187.2z"/>
<path style="stroke:none; fill:#c5d6bc" d="M 239.2 187.2L 240 188L 239.2 187.2M 111.2 188L 112 188.8L 111.2 188z"/>
<path style="stroke:none; fill:#bcd2b6" d="M 241.6 190.4L 242.4 191.2L 241.6 190.4z"/>
<path style="stroke:none; fill:#c5d6bc" d="M 242.4 191.2L 243.2 192L 242.4 191.2M 107.2 192.8L 108 193.6L 107.2 192.8z"/>
<path style="stroke:none; fill:#c1d3b8" d="M 219.2 192.8L 220 193.6L 219.2 192.8z"/>
<path style="stroke:none; fill:#c5d6bc" d="M 220 193.6L 220.8 194.4L 220 193.6M 220.8 194.4L 221.6 195.2L 220.8 194.4z"/>
<path style="stroke:none; fill:#c1d3b8" d="M 221.6 195.2L 222.4 196L 221.6 195.2M 248 198.4L 248.8 199.2L 248 198.4z"/>
<path style="stroke:none; fill:#cdddc5" d="M 121.6 200L 122.4 200.8L 121.6 200z"/>
<path style="stroke:none; fill:#bcd2b6" d="M 120.8 200.8L 121.6 201.6L 120.8 200.8z"/>
<path style="stroke:none; fill:#c1d3b8" d="M 249.6 200.8L 250.4 201.6L 249.6 200.8z"/>
<path style="stroke:none; fill:#bcd2b6" d="M 228.8 203.2L 229.6 204L 228.8 203.2z"/>
<path style="stroke:none; fill:#cdddc5" d="M 231.2 206.4L 232 207.2L 231.2 206.4M 232.8 208L 233.6 208.8L 232.8 208M 97.6 208.8L 98.4 209.6L 97.6 208.8z"/>
<path style="stroke:none; fill:#c5d6bc" d="M 114.4 210.4L 115.2 211.2L 114.4 210.4z"/>
<path style="stroke:none; fill:#c1d3b8" d="M 234.4 210.4L 235.2 211.2L 234.4 210.4z"/>
<path style="stroke:none; fill:#bcd2b6" d="M 236 212.8L 236.8 213.6L 236 212.8z"/>
<path style="stroke:none; fill:#c5d6bc" d="M 112.8 213.6L 113.6 214.4L 112.8 213.6z"/>
<path style="stroke:none; fill:#d2e0ce" d="M 94.4 216L 95.2 216.8L 94.4 216z"/>
<path style="stroke:none; fill:#c5d6bc" d="M 111.2 217.6L 112 218.4L 111.2 217.6z"/>
<path style="stroke:none; fill:#e7ede2" d="M 110.666 219.734C 110.622 219.778 110.578 220.622 110.934 220.266C 110.978 220.222 111.022 219.378 110.666 219.734z"/>
<path style="stroke:none; fill:#bcd2b6" d="M 260.266 221.334C 260.222 221.378 260.178 222.222 260.534 221.866C 260.578 221.822 260.622 220.978 260.266 221.334z"/>
<path style="stroke:none; fill:#c5d6bc" d="M 240.8 221.6L 241.6 222.4L 240.8 221.6z"/>
<path style="stroke:none; fill:#adc8a3" d="M 92.2664 223.734C 92.2224 223.778 92.1776 224.622 92.5336 224.266C 92.5776 224.222 92.6224 223.378 92.2664 223.734z"/>
<path style="stroke:none; fill:#cdddc5" d="M 260.8 223.2L 261.6 224L 260.8 223.2M 91.2 225.6L 92 226.4L 91.2 225.6z"/>
<path style="stroke:none; fill:#dbe7d4" d="M 108.266 226.134C 108.222 226.178 108.178 227.022 108.534 226.666C 108.578 226.622 108.622 225.778 108.266 226.134z"/>
<path style="stroke:none; fill:#b3c9a9" d="M 261.866 226.134C 261.822 226.178 261.778 227.022 262.134 226.666C 262.178 226.622 262.222 225.778 261.866 226.134z"/>
<path style="stroke:none; fill:#cdddc5" d="M 90.6664 228.534C 90.6224 228.578 90.5776 229.422 90.9336 229.066C 90.9776 229.022 91.0224 228.178 90.6664 228.534M 107.2 228.8L 108 229.6L 107.2 228.8z"/>
<path style="stroke:none; fill:#c5d6bc" d="M 244 229.6L 244.8 230.4L 244 229.6z"/>
<path style="stroke:none; fill:#cdddc5" d="M 89.6 231.2L 90.4 232L 89.6 231.2z"/>
<path style="stroke:none; fill:#b8cfad" d="M 263.466 231.734C 263.422 231.778 263.378 232.622 263.734 232.266C 263.778 232.222 263.822 231.378 263.466 231.734z"/>
<path style="stroke:none; fill:#dbe7d4" d="M 245.866 233.334C 245.822 233.378 245.778 234.222 246.134 233.866C 246.178 233.822 246.222 232.978 245.866 233.334z"/>
<path style="stroke:none; fill:#e7ede2" d="M 105.866 234.134C 105.822 234.178 105.778 235.022 106.134 234.666C 106.178 234.622 106.222 233.778 105.866 234.134z"/>
<path style="stroke:none; fill:#c5d6bc" d="M 222.4 235.2L 223.2 236L 222.4 235.2z"/>
<path style="stroke:none; fill:#b3c9a9" d="M 88.2664 236.534C 88.2224 236.578 88.1776 237.422 88.5336 237.066C 88.5776 237.022 88.6224 236.178 88.2664 236.534z"/>
<path style="stroke:none; fill:#e7ede2" d="M 105.066 236.534C 105.022 236.578 104.978 237.422 105.334 237.066C 105.378 237.022 105.422 236.178 105.066 236.534z"/>
<path style="stroke:none; fill:#cdddc5" d="M 223.2 236.8L 224 237.6L 223.2 236.8z"/>
<path style="stroke:none; fill:#c5d6bc" d="M 264.8 236.8L 265.6 237.6L 264.8 236.8z"/>
<path style="stroke:none; fill:#d2e0ce" d="M 87.2 238.4L 88 239.2L 87.2 238.4z"/>
<path style="stroke:none; fill:#dbe7d4" d="M 247.466 238.934C 247.422 238.978 247.378 239.822 247.734 239.466C 247.778 239.422 247.822 238.578 247.466 238.934z"/>
<path style="stroke:none; fill:#c5d6bc" d="M 128 239.2L 128.8 240L 128 239.2z"/>
<path style="stroke:none; fill:#b8cfad" d="M 214.666 239.734C 214.622 239.778 214.578 240.622 214.934 240.266C 214.978 240.222 215.022 239.378 214.666 239.734z"/>
<path style="stroke:none; fill:#c5d6bc" d="M 122.4 240L 123.2 240.8L 122.4 240z"/>
<path style="stroke:none; fill:#b8cfad" d="M 265.866 240.534C 265.822 240.578 265.778 241.422 266.134 241.066C 266.178 241.022 266.222 240.178 265.866 240.534z"/>
<path style="stroke:none; fill:#c1d3b8" d="M 86.6664 241.334C 86.6224 241.378 86.5776 242.222 86.9336 241.866C 86.9776 241.822 87.0224 240.978 86.6664 241.334z"/>
<path style="stroke:none; fill:#dbe7d4" d="M 103.466 241.334C 103.422 241.378 103.378 242.222 103.734 241.866C 103.778 241.822 103.822 240.978 103.466 241.334M 225.6 243.2L 225.6 245.6L 226.4 245.6C 226.199 244.438 226.148 244.198 225.6 243.2z"/>
<path style="stroke:none; fill:#cdddc5" d="M 266.4 243.2L 267.2 244L 266.4 243.2z"/>
<path style="stroke:none; fill:#c1d3b8" d="M 121.066 244.534C 121.022 244.578 120.978 245.422 121.334 245.066C 121.378 245.022 121.422 244.178 121.066 244.534z"/>
<path style="stroke:none; fill:#b3c9a9" d="M 130.666 245.334C 130.622 245.378 130.578 246.222 130.934 245.866C 130.978 245.822 131.022 244.978 130.666 245.334z"/>
<path style="stroke:none; fill:#dfebdd" d="M 249.066 245.334C 249.022 245.378 248.978 246.222 249.334 245.866C 249.378 245.822 249.422 244.978 249.066 245.334z"/>
<path style="stroke:none; fill:#d2e0ce" d="M 212.8 245.6L 212.8 250.4L 213.6 250.4C 213.562 248.598 213.499 247.242 212.8 245.6z"/>
<path style="stroke:none; fill:#bcd2b6" d="M 267.466 246.934C 267.422 246.978 267.378 247.822 267.734 247.466C 267.778 247.422 267.822 246.578 267.466 246.934z"/>
<path style="stroke:none; fill:#adc8a3" d="M 131.466 248.534C 131.422 248.578 131.378 249.422 131.734 249.066C 131.778 249.022 131.822 248.178 131.466 248.534z"/>
<path style="stroke:none; fill:#c1d3b8" d="M 268 249.6L 268.8 250.4L 268 249.6z"/>
<path style="stroke:none; fill:#b8cfad" d="M 212.8 250.4L 212.8 256L 213.6 256C 213.585 253.966 213.588 252.266 212.8 250.4z"/>
<path style="stroke:none; fill:#dbe7d4" d="M 226.4 250.4L 226.4 252.8L 227.2 252.8C 226.999 251.638 226.948 251.398 226.4 250.4z"/>
<path style="stroke:none; fill:#cdddc5" d="M 132 252L 132 256L 132.8 256C 132.73 254.429 132.623 253.415 132 252z"/>
<path style="stroke:none; fill:#bcd2b6" d="M 269.066 252.534C 269.022 252.578 268.978 253.422 269.334 253.066C 269.378 253.022 269.422 252.178 269.066 252.534M 119.466 254.134C 119.422 254.178 119.378 255.022 119.734 254.666C 119.778 254.622 119.822 253.778 119.466 254.134z"/>
<path style="stroke:none; fill:#eef5ec" d="M 227.2 256L 227.2 259.2L 228 259.2C 227.861 257.852 227.746 257.205 227.2 256z"/>
<path style="stroke:none; fill:#bcd2b6" d="M 80.8 256.8L 81.6 257.6L 80.8 256.8z"/>
<path style="stroke:none; fill:#cdddc5" d="M 118.4 257.6L 119.2 258.4L 118.4 257.6z"/>
<path style="stroke:none; fill:#d2e0ce" d="M 132.8 259.2L 132.8 261.6L 133.6 261.6C 133.399 260.438 133.348 260.198 132.8 259.2z"/>
<path style="stroke:none; fill:#cdddc5" d="M 117.6 260L 118.4 260.8L 117.6 260z"/>
<path style="stroke:none; fill:#bcd2b6" d="M 272.8 262.4L 273.6 263.2L 272.8 262.4z"/>
<path style="stroke:none; fill:#c5d6bc" d="M 255.2 265.6L 256 266.4L 255.2 265.6z"/>
<path style="stroke:none; fill:#abc59f" d="M 113.866 266.934C 113.822 266.978 113.778 267.822 114.134 267.466C 114.178 267.422 114.222 266.578 113.866 266.934z"/>
<path style="stroke:none; fill:#dfebdd" d="M 133.6 266.4L 133.6 268.8L 134.4 268.8C 134.199 267.638 134.148 267.398 133.6 266.4z"/>
<path style="stroke:none; fill:#abc59f" d="M 133.6 268.8L 133.6 272L 134.4 272C 134.261 270.652 134.146 270.005 133.6 268.8z"/>
<path style="stroke:none; fill:#bcd2b6" d="M 92 269.6L 92.8 270.4L 92 269.6z"/>
<path style="stroke:none; fill:#c1d3b8" d="M 232 269.6L 232.8 270.4L 232 269.6z"/>
<path style="stroke:none; fill:#eef5ec" d="M 212 271.2L 212 277.6L 212.8 277.6C 212.794 275.331 212.878 273.29 212 271.2z"/>
<path style="stroke:none; fill:#cdddc5" d="M 232.8 271.2L 233.6 272L 232.8 271.2z"/>
<path style="stroke:none; fill:#c1d3b8" d="M 72 273.6L 72.8 274.4L 72 273.6z"/>
<path style="stroke:none; fill:#cdddc5" d="M 110.4 273.6L 111.2 274.4L 110.4 273.6z"/>
<path style="stroke:none; fill:#c5d6bc" d="M 89.6 275.2L 90.4 276L 89.6 275.2z"/>
<path style="stroke:none; fill:#dfebdd" d="M 134.4 275.2L 134.4 281.6L 135.2 281.6C 135.194 279.332 135.278 277.29 134.4 275.2z"/>
<path style="stroke:none; fill:#bcd2b6" d="M 280 275.2L 280.8 276L 280 275.2z"/>
<path style="stroke:none; fill:#d2e0ce" d="M 235.2 276L 236 276.8L 235.2 276M 212 277.6L 212 283.2L 212.8 283.2C 212.785 281.166 212.788 279.466 212 277.6z"/>
<path style="stroke:none; fill:#b3c9a9" d="M 236.266 278.134C 236.222 278.178 236.178 279.022 236.534 278.666C 236.578 278.622 236.622 277.778 236.266 278.134z"/>
<path style="stroke:none; fill:#c5d6bc" d="M 281.6 277.6L 282.4 278.4L 281.6 277.6z"/>
<path style="stroke:none; fill:#cdddc5" d="M 134.4 281.6L 134.4 287.2L 135.2 287.2C 135.185 285.166 135.188 283.466 134.4 281.6z"/>
<path style="stroke:none; fill:#c5d6bc" d="M 106.4 282.4L 107.2 283.2L 106.4 282.4M 263.2 282.4L 264 283.2L 263.2 282.4M 84.8 283.2L 85.6 284L 84.8 283.2z"/>
<path style="stroke:none; fill:#bcd2b6" d="M 212 283.2L 212 288.8L 212.8 288.8C 212.785 286.766 212.787 285.066 212 283.2z"/>
<path style="stroke:none; fill:#cdddc5" d="M 285.6 283.2L 286.4 284L 285.6 283.2z"/>
<path style="stroke:none; fill:#c1d3b8" d="M 64.8 284L 65.6 284.8L 64.8 284M 105.6 284L 106.4 284.8L 105.6 284z"/>
<path style="stroke:none; fill:#c5d6bc" d="M 264 284L 264.8 284.8L 264 284z"/>
<path style="stroke:none; fill:#c1d3b8" d="M 240 285.6L 240.8 286.4L 240 285.6z"/>
<path style="stroke:none; fill:#cdddc5" d="M 104 287.2L 104.8 288L 104 287.2z"/>
<path style="stroke:none; fill:#b3c9a9" d="M 134.4 287.2L 134.4 292L 135.2 292C 135.162 290.198 135.099 288.842 134.4 287.2z"/>
<path style="stroke:none; fill:#c5d6bc" d="M 61.6 288L 62.4 288.8L 61.6 288z"/>
<path style="stroke:none; fill:#bcd2b6" d="M 81.6 288L 82.4 288.8L 81.6 288z"/>
<path style="stroke:none; fill:#c1d3b8" d="M 288.8 288L 289.6 288.8L 288.8 288z"/>
<path style="stroke:none; fill:#c5d6bc" d="M 103.2 288.8L 104 289.6L 103.2 288.8z"/>
<path style="stroke:none; fill:#bcd2b6" d="M 267.2 288.8L 268 289.6L 267.2 288.8z"/>
<path style="stroke:none; fill:#cdddc5" d="M 290.4 289.6L 291.2 290.4L 290.4 289.6M 80 290.4L 80.8 291.2L 80 290.4z"/>
<path style="stroke:none; fill:#bcd2b6" d="M 292 292L 292.8 292.8L 292 292z"/>
<path style="stroke:none; fill:#c5d6bc" d="M 78.4 292.8L 79.2 293.6L 78.4 292.8z"/>
<path style="stroke:none; fill:#cdddc5" d="M 100.8 292.8L 101.6 293.6L 100.8 292.8M 292.8 292.8L 293.6 293.6L 292.8 292.8z"/>
<path style="stroke:none; fill:#ffffff" d="M 117.6 293.6C 112.725 306.148 102.228 315.793 97.6 328C 105.007 327.064 112.524 325.662 120 325.6C 120 317.785 122.277 299.774 117.6 293.6z"/>
<path style="stroke:none; fill:#cdddc5" d="M 118.4 293.6L 119.2 294.4L 118.4 293.6z"/>
<path style="stroke:none; fill:#c1d3b8" d="M 270.4 293.6L 271.2 294.4L 270.4 293.6z"/>
<path style="stroke:none; fill:#bcd2b6" d="M 119.2 295.2L 119.2 308L 120 308C 120 303.928 120.786 298.979 119.2 295.2z"/>
<path style="stroke:none; fill:#cdddc5" d="M 55.2 296L 56 296.8L 55.2 296z"/>
<path style="stroke:none; fill:#c1d3b8" d="M 98.4 296.8L 99.2 297.6L 98.4 296.8z"/>
<path style="stroke:none; fill:#d2e0ce" d="M 227.2 296.8L 227.2 326.4L 228 326.4C 228 317.881 230.489 304.638 227.2 296.8z"/>
<path style="stroke:none; fill:#cdddc5" d="M 272.8 296.8L 273.6 297.6L 272.8 296.8z"/>
<path style="stroke:none; fill:#ffffff" d="M 228 297.6L 228 326.4L 246.4 326.4C 243.386 317.312 234.318 304.871 228 297.6z"/>
<path style="stroke:none; fill:#cdddc5" d="M 97.6 298.4L 98.4 299.2L 97.6 298.4z"/>
<path style="stroke:none; fill:#bcd2b6" d="M 247.2 298.4L 248 299.2L 247.2 298.4z"/>
<path style="stroke:none; fill:#cdddc5" d="M 274.4 299.2L 275.2 300L 274.4 299.2z"/>
<path style="stroke:none; fill:#c5d6bc" d="M 298.4 299.2L 299.2 300L 298.4 299.2z"/>
<path style="stroke:none; fill:#cdddc5" d="M 229.6 300L 230.4 300.8L 229.6 300z"/>
<path style="stroke:none; fill:#c5d6bc" d="M 248.8 300.8L 249.6 301.6L 248.8 300.8z"/>
<path style="stroke:none; fill:#cdddc5" d="M 300 300.8L 300.8 301.6L 300 300.8M 71.2 301.6L 72 302.4L 71.2 301.6M 95.2 301.6L 96 302.4L 95.2 301.6z"/>
<path style="stroke:none; fill:#abc59f" d="M 212 303.2L 212 305.6L 212.8 305.6C 212.599 304.438 212.548 304.198 212 303.2z"/>
<path style="stroke:none; fill:#cdddc5" d="M 250.4 303.2L 251.2 304L 250.4 303.2z"/>
<path style="stroke:none; fill:#c5d6bc" d="M 302.4 303.2L 303.2 304L 302.4 303.2M 232 304L 232.8 304.8L 232 304z"/>
<path style="stroke:none; fill:#bcd2b6" d="M 303.2 304L 304 304.8L 303.2 304M 47.2 304.8L 48 305.6L 47.2 304.8z"/>
<path style="stroke:none; fill:#c5d6bc" d="M 112 304.8L 112.8 305.6L 112 304.8z"/>
<path style="stroke:none; fill:#d2e0ce" d="M 304 304.8L 304.8 305.6L 304 304.8z"/>
<path style="stroke:none; fill:#c5d6bc" d="M 46.4 305.6L 47.2 306.4L 46.4 305.6z"/>
<path style="stroke:none; fill:#dfebdd" d="M 212 305.6L 212 309.6L 212.8 309.6C 212.73 308.029 212.623 307.015 212 305.6z"/>
<path style="stroke:none; fill:#c5d6bc" d="M 45.6 306.4L 46.4 307.2L 45.6 306.4M 111.2 306.4L 112 307.2L 111.2 306.4z"/>
<path style="stroke:none; fill:#cdddc5" d="M 252.8 306.4L 253.6 307.2L 252.8 306.4M 305.6 306.4L 306.4 307.2L 305.6 306.4z"/>
<path style="stroke:none; fill:#dbe7d4" d="M 119.2 308L 119.2 312L 120 312C 119.93 310.429 119.823 309.415 119.2 308z"/>
<path style="stroke:none; fill:#c5d6bc" d="M 307.2 308L 308 308.8L 307.2 308M 135.466 309.334C 135.422 309.378 135.378 310.222 135.734 309.866C 135.778 309.822 135.822 308.978 135.466 309.334M 255.2 309.6L 256 310.4L 255.2 309.6M 286.4 312.8L 287.2 313.6L 286.4 312.8z"/>
<path style="stroke:none; fill:#dbe7d4" d="M 212 314.4L 212 319.2L 212.8 319.2C 212.762 317.398 212.699 316.042 212 314.4z"/>
<path style="stroke:none; fill:#d2e0ce" d="M 314.4 314.4L 315.2 315.2L 314.4 314.4z"/>
<path style="stroke:none; fill:#c5d6bc" d="M 36.8 315.2L 37.6 316L 36.8 315.2z"/>
<path style="stroke:none; fill:#cdddc5" d="M 57.6 315.2L 58.4 316L 57.6 315.2z"/>
<path style="stroke:none; fill:#d2e0ce" d="M 260 315.2L 260.8 316L 260 315.2z"/>
<path style="stroke:none; fill:#cdddc5" d="M 315.2 315.2L 316 316L 315.2 315.2M 104.8 316L 105.6 316.8L 104.8 316M 260.8 316L 261.6 316.8L 260.8 316z"/>
<path style="stroke:none; fill:#d2e0ce" d="M 35.2 316.8L 36 317.6L 35.2 316.8z"/>
<path style="stroke:none; fill:#cdddc5" d="M 34.4 317.6L 35.2 318.4L 34.4 317.6z"/>
<path style="stroke:none; fill:#c1d3b8" d="M 55.2 317.6L 56 318.4L 55.2 317.6z"/>
<path style="stroke:none; fill:#cdddc5" d="M 82.4 317.6L 83.2 318.4L 82.4 317.6z"/>
<path style="stroke:none; fill:#c5d6bc" d="M 240.8 317.6L 241.6 318.4L 240.8 317.6z"/>
<path style="stroke:none; fill:#bcd2b6" d="M 81.6 318.4L 82.4 319.2L 81.6 318.4z"/>
<path style="stroke:none; fill:#d2e0ce" d="M 103.2 318.4L 104 319.2L 103.2 318.4z"/>
<path style="stroke:none; fill:#dbe7d4" d="M 136 318.4L 136 321.6L 136.8 321.6C 136.661 320.252 136.546 319.605 136 318.4z"/>
<path style="stroke:none; fill:#cdddc5" d="M 32 319.2L 32.8 320L 32 319.2z"/>
<path style="stroke:none; fill:#bcd2b6" d="M 322.4 320L 323.2 320.8L 322.4 320z"/>
<path style="stroke:none; fill:#cdddc5" d="M 243.2 320.8L 244 321.6L 243.2 320.8M 265.6 320.8L 266.4 321.6L 265.6 320.8z"/>
<path style="stroke:none; fill:#dbe7d4" d="M 324.534 321.066C 324.178 321.422 325.022 321.378 325.066 321.334C 325.422 320.978 324.578 321.022 324.534 321.066z"/>
<path style="stroke:none; fill:#b3c9a9" d="M 136 321.6L 136 324.8L 136.8 324.8C 136.661 323.452 136.546 322.805 136 321.6z"/>
<path style="stroke:none; fill:#c5d6bc" d="M 16.8 322.4L 17.6 323.2L 16.8 322.4z"/>
<path style="stroke:none; fill:#d2e0ce" d="M 100 322.4L 100.8 323.2L 100 322.4z"/>
<path style="stroke:none; fill:#cdddc5" d="M 48 324L 48.8 324.8L 48 324M 75.2 324L 76 324.8L 75.2 324M 245.6 324L 246.4 324.8L 245.6 324z"/>
<path style="stroke:none; fill:#bcd2b6" d="M 74.4 324.8L 75.2 325.6L 74.4 324.8z"/>
<path style="stroke:none; fill:#99b989" d="M 136.8 324.8L 136.8 325.6L 189.6 325.6C 184.839 323.602 177.936 324.8 172.8 324.8L 136.8 324.8z"/>
<path style="stroke:none; fill:#bcd2b6" d="M 204.8 324.8L 204.8 325.6L 207.2 325.6C 206.202 325.052 205.962 325.001 204.8 324.8z"/>
<path style="stroke:none; fill:#e7ede2" d="M 207.2 324.8L 207.2 325.6L 211.2 325.6C 209.785 324.977 208.771 324.87 207.2 324.8z"/>
<path style="stroke:none; fill:#d2e0ce" d="M 270.4 324.8L 271.2 325.6L 270.4 324.8z"/>
<path style="stroke:none; fill:#dbe7d4" d="M 113.6 325.6L 113.6 326.4L 116 326.4C 115.002 325.852 114.762 325.801 113.6 325.6z"/>
<path style="stroke:none; fill:#eef5ec" d="M 242.4 326.4L 242.4 327.2L 248 327.2C 246.115 326.103 244.594 326.287 242.4 326.4z"/>
<path style="stroke:none; fill:#c5d6bc" d="M 331.2 325.6L 332 326.4L 331.2 325.6z"/>
<path style="stroke:none; fill:#d2e0ce" d="M 106.934 326.666C 106.578 327.022 107.422 326.978 107.466 326.934C 107.822 326.578 106.978 326.622 106.934 326.666z"/>
<path style="stroke:none; fill:#b8cfad" d="M 108 326.4L 108 327.2L 110.4 327.2C 109.402 326.652 109.162 326.601 108 326.4z"/>
<path style="stroke:none; fill:#b3c9a9" d="M 228 326.4L 228 327.2L 232.8 327.2C 231.158 326.501 229.802 326.438 228 326.4z"/>
<path style="stroke:none; fill:#cdddc5" d="M 232.8 326.4L 232.8 327.2L 236 327.2C 234.795 326.654 234.148 326.539 232.8 326.4z"/>
<path style="stroke:none; fill:#dbe7d4" d="M 236 326.4L 236 327.2L 242.4 327.2C 240.31 326.322 238.269 326.406 236 326.4z"/>
<path style="stroke:none; fill:#c1d3b8" d="M 69.6 328L 70.4 328.8L 69.6 328z"/>
<path style="stroke:none; fill:#c5d6bc" d="M 275.2 328L 276 328.8L 275.2 328z"/>
<path style="stroke:none; fill:#d2e0ce" d="M 40.8 328.8L 41.6 329.6L 40.8 328.8M 68 328.8L 68.8 329.6L 68 328.8z"/>
<path style="stroke:none; fill:#c5d6bc" d="M 276.8 328.8L 277.6 329.6L 276.8 328.8z"/>
<path style="stroke:none; fill:#e7ede2" d="M 38.1334 330.666C 37.7778 331.022 38.6222 330.978 38.6666 330.934C 39.0222 330.578 38.1778 330.622 38.1334 330.666z"/>
<path style="stroke:none; fill:#cdddc5" d="M 65.6 330.4L 66.4 331.2L 65.6 330.4z"/>
<path style="stroke:none; fill:#c5d6bc" d="M 307.2 330.4L 308 331.2L 307.2 330.4M 333.6 330.4L 334.4 331.2L 333.6 330.4z"/>
<path style="stroke:none; fill:#b8cfad" d="M 9.86664 331.734C 9.82224 331.778 9.77776 332.622 10.1334 332.266C 10.1778 332.222 10.2222 331.378 9.86664 331.734z"/>
<path style="stroke:none; fill:#cdddc5" d="M 33.6 331.2L 33.6 332L 36 332C 35.0013 331.452 34.7613 331.401 33.6 331.2z"/>
<path style="stroke:none; fill:#c5d6bc" d="M 64 331.2L 64.8 332L 64 331.2M 334.4 332L 335.2 332.8L 334.4 332M 8.8 334.4L 8.8 337.6L 9.6 337.6C 9.46072 336.252 9.3464 335.605 8.8 334.4z"/>
<path style="stroke:none; fill:#adc8a3" d="M 22.4 335.2L 22.4 337.6L 23.2 337.6C 22.999 336.438 22.9478 336.198 22.4 335.2z"/>
<path style="stroke:none; fill:#c5d6bc" d="M 52.8 336L 53.6 336.8L 52.8 336z"/>
<path style="stroke:none; fill:#cdddc5" d="M 319.2 336L 320 336.8L 319.2 336M 320.8 336.8L 321.6 337.6L 320.8 336.8z"/>
<path style="stroke:none; fill:#c5d6bc" d="M 320 338.4L 320.8 339.2L 320 338.4z"/>
<path style="stroke:none; fill:#bcd2b6" d="M 24 339.2L 24.8 340L 24 339.2z"/>
<path style="stroke:none; fill:#adc8a3" d="M 45.3334 339.466C 44.9778 339.822 45.8222 339.778 45.8666 339.734C 46.2222 339.378 45.3778 339.422 45.3334 339.466z"/>
<path style="stroke:none; fill:#b3c9a9" d="M 133.6 339.2L 133.6 340L 138.4 340C 136.758 339.301 135.402 339.238 133.6 339.2z"/>
<path style="stroke:none; fill:#dbe7d4" d="M 138.4 339.2L 138.4 340L 166.4 340C 158.943 336.871 146.5 339.2 138.4 339.2z"/>
<path style="stroke:none; fill:#c5d6bc" d="M 166.4 339.2L 166.4 340L 171.2 340C 169.558 339.301 168.202 339.238 166.4 339.2z"/>
<path style="stroke:none; fill:#b3c9a9" d="M 171.2 339.2L 171.2 340L 175.2 340C 173.785 339.377 172.771 339.27 171.2 339.2z"/>
<path style="stroke:none; fill:#cdddc5" d="M 319.2 339.2L 320 340L 319.2 339.2z"/>
<path style="stroke:none; fill:#dbe7d4" d="M 9.86664 340.534C 9.82224 340.578 9.77776 341.422 10.1334 341.066C 10.1778 341.022 10.2222 340.178 9.86664 340.534z"/>
<path style="stroke:none; fill:#c5d6bc" d="M 25.6 340L 26.4 340.8L 25.6 340M 42.4 340L 43.2 340.8L 42.4 340z"/>
<path style="stroke:none; fill:#b3c9a9" d="M 122.134 340.266C 121.778 340.622 122.622 340.578 122.666 340.534C 123.022 340.178 122.178 340.222 122.134 340.266z"/>
<path style="stroke:none; fill:#eef5ec" d="M 123.2 340L 123.2 340.8L 126.4 340.8C 125.195 340.254 124.548 340.139 123.2 340z"/>
<path style="stroke:none; fill:#ffffff" d="M 126.4 340.339C 102.094 343.531 80.052 343.359 56.8 352.093C 50.8685 354.32 39.5287 353.893 36.1432 360.075C 29.5361 372.142 43.6475 387.663 52.8 393.117C 72.6442 404.94 99.512 412.669 122.4 415.24C 130.599 416.161 141.119 417.602 148.799 413.729C 160.136 408.012 154.461 397.763 145.6 393.287C 128.218 384.506 108.236 380.922 89.6 375.879C 84.528 374.506 79.0603 372.906 74.4161 370.403C 73.0826 369.685 70.28 367.981 71.8012 366.162C 73.8847 363.67 80.3344 364.786 83.2 364.801C 95.492 364.86 108.073 368.916 120 371.601C 130.436 373.95 141.72 375.716 151.2 380.937C 160.818 386.233 167.418 395.63 179.2 394.313C 187.534 393.382 196.603 382.203 204.8 378.669C 219.869 372.173 237.566 369.746 253.6 366.83C 259.147 365.821 274.088 361.299 278.734 366.19C 282.83 370.5 264.222 375.202 261.6 375.972C 242.894 381.459 222.336 384.919 204.8 393.818C 194.873 398.856 191.72 409.426 204 414.398C 212.225 417.73 222.744 415.994 231.2 414.742C 253.067 411.505 279.547 405.025 298.4 393.044C 307.567 387.218 321.985 373.266 315.421 360.884C 312.826 355.988 306.318 356.623 301.6 355.845C 290.686 354.043 280.618 348.686 269.6 346.98C 242.232 342.745 215.57 341.976 188 340.769C 168.071 339.896 146.262 337.732 126.4 340.339z"/>
<path style="stroke:none; fill:#eef5ec" d="M 184 340L 184 340.8L 191.2 340.8C 188.888 339.83 186.501 340.002 184 340z"/>
<path style="stroke:none; fill:#c5d6bc" d="M 191.2 340L 191.2 340.8L 195.2 340.8C 193.785 340.177 192.771 340.07 191.2 340z"/>
<path style="stroke:none; fill:#bcd2b6" d="M 106.4 340.8L 106.4 341.6L 110.4 341.6C 108.985 340.977 107.971 340.87 106.4 340.8z"/>
<path style="stroke:none; fill:#e7ede2" d="M 110.4 340.8L 110.4 341.6L 113.6 341.6C 112.395 341.054 111.748 340.939 110.4 340.8z"/>
<path style="stroke:none; fill:#dbe7d4" d="M 209.6 340.8L 209.6 341.6L 216.8 341.6C 214.488 340.63 212.101 340.802 209.6 340.8z"/>
<path style="stroke:none; fill:#cdddc5" d="M 216.8 340.8L 216.8 341.6L 223.2 341.6C 221.11 340.722 219.069 340.806 216.8 340.8z"/>
<path style="stroke:none; fill:#dbe7d4" d="M 304.534 341.066C 304.178 341.422 305.022 341.378 305.066 341.334C 305.422 340.978 304.578 341.022 304.534 341.066z"/>
<path style="stroke:none; fill:#cdddc5" d="M 316.8 340.8L 317.6 341.6L 316.8 340.8z"/>
<path style="stroke:none; fill:#dfebdd" d="M 30.4 341.6L 30.4 342.4L 34.4 342.4C 32.9848 341.777 31.9713 341.67 30.4 341.6z"/>
<path style="stroke:none; fill:#c1d3b8" d="M 34.9334 341.866C 34.5778 342.222 35.4222 342.178 35.4666 342.134C 35.8222 341.778 34.9778 341.822 34.9334 341.866z"/>
<path style="stroke:none; fill:#dbe7d4" d="M 229.6 341.6L 229.6 342.4L 233.6 342.4C 232.185 341.777 231.171 341.67 229.6 341.6z"/>
<path style="stroke:none; fill:#adc8a3" d="M 234.134 341.866C 233.778 342.222 234.622 342.178 234.666 342.134C 235.022 341.778 234.178 341.822 234.134 341.866z"/>
<path style="stroke:none; fill:#c5d6bc" d="M 308.534 341.866C 308.178 342.222 309.022 342.178 309.066 342.134C 309.422 341.778 308.578 341.822 308.534 341.866z"/>
<path style="stroke:none; fill:#e7ede2" d="M 309.6 341.6L 309.6 342.4L 313.6 342.4C 312.185 341.777 311.171 341.67 309.6 341.6z"/>
<path style="stroke:none; fill:#cdddc5" d="M 96.5336 342.666C 96.1776 343.022 97.0224 342.978 97.0664 342.934C 97.4224 342.578 96.5776 342.622 96.5336 342.666z"/>
<path style="stroke:none; fill:#e7ede2" d="M 238.4 342.4L 238.4 343.2L 240.8 343.2C 239.802 342.652 239.562 342.601 238.4 342.4z"/>
<path style="stroke:none; fill:#b3c9a9" d="M 86.9336 343.466C 86.5776 343.822 87.4224 343.778 87.4664 343.734C 87.8224 343.378 86.9776 343.422 86.9336 343.466z"/>
<path style="stroke:none; fill:#cdddc5" d="M 88 343.2L 88 344L 90.4 344C 89.4016 343.452 89.1616 343.401 88 343.2z"/>
<path style="stroke:none; fill:#d2e0ce" d="M 246.4 343.2L 246.4 344L 248.8 344C 247.802 343.452 247.562 343.401 246.4 343.2z"/>
<path style="stroke:none; fill:#dbe7d4" d="M 81.3336 344.266C 80.9776 344.622 81.8224 344.578 81.8664 344.534C 82.2224 344.178 81.3776 344.222 81.3336 344.266z"/>
<path style="stroke:none; fill:#cdddc5" d="M 253.334 344.266C 252.978 344.622 253.822 344.578 253.866 344.534C 254.222 344.178 253.378 344.222 253.334 344.266z"/>
<path style="stroke:none; fill:#dbe7d4" d="M 74.9334 345.066C 74.5778 345.422 75.4222 345.378 75.4666 345.334C 75.8222 344.978 74.9778 345.022 74.9334 345.066z"/>
<path style="stroke:none; fill:#c5d6bc" d="M 259.734 345.066C 259.378 345.422 260.222 345.378 260.266 345.334C 260.622 344.978 259.778 345.022 259.734 345.066z"/>
<path style="stroke:none; fill:#b8cfad" d="M 264.534 345.866C 264.178 346.222 265.022 346.178 265.066 346.134C 265.422 345.778 264.578 345.822 264.534 345.866z"/>
<path style="stroke:none; fill:#dfebdd" d="M 69.3334 346.666C 68.9778 347.022 69.8222 346.978 69.8666 346.934C 70.2222 346.578 69.3778 346.622 69.3334 346.666M 268.534 346.666C 268.178 347.022 269.022 346.978 269.066 346.934C 269.422 346.578 268.578 346.622 268.534 346.666z"/>
<path style="stroke:none; fill:#bcd2b6" d="M 270.134 346.666C 269.778 347.022 270.622 346.978 270.666 346.934C 271.022 346.578 270.178 346.622 270.134 346.666z"/>
<path style="stroke:none; fill:#c1d3b8" d="M 277.334 348.266C 276.978 348.622 277.822 348.578 277.866 348.534C 278.222 348.178 277.378 348.222 277.334 348.266M 331.2 348L 332 348.8L 331.2 348z"/>
<path style="stroke:none; fill:#bcd2b6" d="M 63.2 348.8L 64 349.6L 63.2 348.8z"/>
<path style="stroke:none; fill:#cdddc5" d="M 281.6 349.6L 282.4 350.4L 281.6 349.6M 326.4 352.8L 327.2 353.6L 326.4 352.8z"/>
<path style="stroke:none; fill:#c1d3b8" d="M 49.3334 353.866C 48.9778 354.222 49.8222 354.178 49.8666 354.134C 50.2222 353.778 49.3778 353.822 49.3334 353.866z"/>
<path style="stroke:none; fill:#dfebdd" d="M 50.9334 353.866C 50.5778 354.222 51.4222 354.178 51.4666 354.134C 51.8222 353.778 50.9778 353.822 50.9334 353.866z"/>
<path style="stroke:none; fill:#b3c9a9" d="M 294.934 353.866C 294.578 354.222 295.422 354.178 295.466 354.134C 295.822 353.778 294.978 353.822 294.934 353.866z"/>
<path style="stroke:none; fill:#c1d3b8" d="M 297.6 354.4L 298.4 355.2L 297.6 354.4z"/>
<path style="stroke:none; fill:#bcd2b6" d="M 327.466 354.934C 327.422 354.978 327.378 355.822 327.734 355.466C 327.778 355.422 327.822 354.578 327.466 354.934z"/>
<path style="stroke:none; fill:#c5d6bc" d="M 299.734 355.466C 299.378 355.822 300.222 355.778 300.266 355.734C 300.622 355.378 299.778 355.422 299.734 355.466z"/>
<path style="stroke:none; fill:#dbe7d4" d="M 305.6 356L 305.6 356.8L 308 356.8C 307.002 356.252 306.762 356.201 305.6 356z"/>
<path style="stroke:none; fill:#bcd2b6" d="M 21.8666 357.334C 21.8222 357.378 21.7778 358.222 22.1334 357.866C 22.1778 357.822 22.2222 356.978 21.8666 357.334z"/>
<path style="stroke:none; fill:#dbe7d4" d="M 20.8 360L 20.8 362.4L 21.6 362.4C 21.399 361.238 21.3478 360.998 20.8 360z"/>
<path style="stroke:none; fill:#d2e0ce" d="M 329.866 360.534C 329.822 360.578 329.778 361.422 330.134 361.066C 330.178 361.022 330.222 360.178 329.866 360.534z"/>
<path style="stroke:none; fill:#c1d3b8" d="M 315.2 360.8L 316 361.6L 315.2 360.8z"/>
<path style="stroke:none; fill:#c5d6bc" d="M 20 364L 20.8 364.8L 20 364z"/>
<path style="stroke:none; fill:#adc8a3" d="M 72.5334 365.066C 72.1778 365.422 73.0222 365.378 73.0666 365.334C 73.4222 364.978 72.5778 365.022 72.5334 365.066z"/>
<path style="stroke:none; fill:#b3c9a9" d="M 80 364.8L 80 365.6L 82.4 365.6C 81.4016 365.052 81.1616 365.001 80 364.8z"/>
<path style="stroke:none; fill:#dbe7d4" d="M 82.4 364.8L 82.4 365.6L 89.6 365.6C 87.288 364.63 84.9008 364.802 82.4 364.8z"/>
<path style="stroke:none; fill:#e7ede2" d="M 260 364.8L 260 365.6L 265.6 365.6C 263.734 364.812 262.034 364.815 260 364.8z"/>
<path style="stroke:none; fill:#c5d6bc" d="M 266.134 365.066C 265.778 365.422 266.622 365.378 266.666 365.334C 267.022 364.978 266.178 365.022 266.134 365.066z"/>
<path style="stroke:none; fill:#c1d3b8" d="M 276 364.8L 276 365.6L 278.4 365.6C 277.402 365.052 277.162 365.001 276 364.8z"/>
<path style="stroke:none; fill:#dfebdd" d="M 19.2 365.6L 19.2 375.2L 20 375.2C 20 372.014 20.4412 368.558 19.2 365.6z"/>
<path style="stroke:none; fill:#cdddc5" d="M 70.4 365.6L 71.2 366.4L 70.4 365.6z"/>
<path style="stroke:none; fill:#b8cfad" d="M 96.5336 366.666C 96.1776 367.022 97.0224 366.978 97.0664 366.934C 97.4224 366.578 96.5776 366.622 96.5336 366.666z"/>
<path style="stroke:none; fill:#dfebdd" d="M 98.1336 366.666C 97.7776 367.022 98.6224 366.978 98.6664 366.934C 99.0224 366.578 98.1776 366.622 98.1336 366.666z"/>
<path style="stroke:none; fill:#b8cfad" d="M 254.134 366.666C 253.778 367.022 254.622 366.978 254.666 366.934C 255.022 366.578 254.178 366.622 254.134 366.666z"/>
<path style="stroke:none; fill:#c5d6bc" d="M 247.734 367.466C 247.378 367.822 248.222 367.778 248.266 367.734C 248.622 367.378 247.778 367.422 247.734 367.466z"/>
<path style="stroke:none; fill:#dbe7d4" d="M 280.266 367.734C 280.222 367.778 280.178 368.622 280.534 368.266C 280.578 368.222 280.622 367.378 280.266 367.734z"/>
<path style="stroke:none; fill:#dfebdd" d="M 109.334 369.066C 108.978 369.422 109.822 369.378 109.866 369.334C 110.222 368.978 109.378 369.022 109.334 369.066z"/>
<path style="stroke:none; fill:#b3c9a9" d="M 241.334 369.066C 240.978 369.422 241.822 369.378 241.866 369.334C 242.222 368.978 241.378 369.022 241.334 369.066z"/>
<path style="stroke:none; fill:#c5d6bc" d="M 278.4 369.6L 279.2 370.4L 278.4 369.6z"/>
<path style="stroke:none; fill:#abc59f" d="M 35.4666 370.934C 35.4222 370.978 35.3778 371.822 35.7334 371.466C 35.7778 371.422 35.8222 370.578 35.4666 370.934z"/>
<path style="stroke:none; fill:#dfebdd" d="M 116.534 370.666C 116.178 371.022 117.022 370.978 117.066 370.934C 117.422 370.578 116.578 370.622 116.534 370.666z"/>
<path style="stroke:none; fill:#abc59f" d="M 234.134 370.666C 233.778 371.022 234.622 370.978 234.666 370.934C 235.022 370.578 234.178 370.622 234.134 370.666z"/>
<path style="stroke:none; fill:#dbe7d4" d="M 123.734 372.266C 123.378 372.622 124.222 372.578 124.266 372.534C 124.622 372.178 123.778 372.222 123.734 372.266z"/>
<path style="stroke:none; fill:#cdddc5" d="M 80.8 372.8L 81.6 373.6L 80.8 372.8z"/>
<path style="stroke:none; fill:#c5d6bc" d="M 221.6 372.8L 222.4 373.6L 221.6 372.8z"/>
<path style="stroke:none; fill:#cdddc5" d="M 270.4 372.8L 271.2 373.6L 270.4 372.8M 82.4 373.6L 83.2 374.4L 82.4 373.6z"/>
<path style="stroke:none; fill:#dbe7d4" d="M 133.334 374.666C 132.978 375.022 133.822 374.978 133.866 374.934C 134.222 374.578 133.378 374.622 133.334 374.666z"/>
<path style="stroke:none; fill:#c5d6bc" d="M 213.6 375.2L 214.4 376L 213.6 375.2z"/>
<path style="stroke:none; fill:#bcd2b6" d="M 36.8 376L 37.6 376.8L 36.8 376z"/>
<path style="stroke:none; fill:#b3c9a9" d="M 91.7336 376.266C 91.3776 376.622 92.2224 376.578 92.2664 376.534C 92.6224 376.178 91.7776 376.222 91.7336 376.266z"/>
<path style="stroke:none; fill:#e7ede2" d="M 139.734 376.266C 139.378 376.622 140.222 376.578 140.266 376.534C 140.622 376.178 139.778 376.222 139.734 376.266z"/>
<path style="stroke:none; fill:#bcd2b6" d="M 210.934 376.266C 210.578 376.622 211.422 376.578 211.466 376.534C 211.822 376.178 210.978 376.222 210.934 376.266z"/>
<path style="stroke:none; fill:#dfebdd" d="M 259.734 376.266C 259.378 376.622 260.222 376.578 260.266 376.534C 260.622 376.178 259.778 376.222 259.734 376.266M 330.666 376.534C 330.622 376.578 330.578 377.422 330.934 377.066C 330.978 377.022 331.022 376.178 330.666 376.534z"/>
<path style="stroke:none; fill:#bcd2b6" d="M 142.4 376.8L 143.2 377.6L 142.4 376.8M 256 376.8L 256.8 377.6L 256 376.8z"/>
<path style="stroke:none; fill:#c5d6bc" d="M 98.1336 377.866C 97.7776 378.222 98.6224 378.178 98.6664 378.134C 99.0224 377.778 98.1776 377.822 98.1336 377.866z"/>
<path style="stroke:none; fill:#cdddc5" d="M 206.134 377.866C 205.778 378.222 206.622 378.178 206.666 378.134C 207.022 377.778 206.178 377.822 206.134 377.866M 252.534 377.866C 252.178 378.222 253.022 378.178 253.066 378.134C 253.422 377.778 252.578 377.822 252.534 377.866M 38.4 378.4L 39.2 379.2L 38.4 378.4z"/>
<path style="stroke:none; fill:#c1d3b8" d="M 204 378.4L 204.8 379.2L 204 378.4M 312 379.2L 312.8 380L 312 379.2z"/>
<path style="stroke:none; fill:#d2e0ce" d="M 329.866 379.734C 329.822 379.778 329.778 380.622 330.134 380.266C 330.178 380.222 330.222 379.378 329.866 379.734z"/>
<path style="stroke:none; fill:#dbe7d4" d="M 21.0666 380.534C 21.0222 380.578 20.9778 381.422 21.3334 381.066C 21.3778 381.022 21.4222 380.178 21.0666 380.534z"/>
<path style="stroke:none; fill:#c5d6bc" d="M 39.2 380L 40 380.8L 39.2 380z"/>
<path style="stroke:none; fill:#cdddc5" d="M 107.2 380L 108 380.8L 107.2 380z"/>
<path style="stroke:none; fill:#c5d6bc" d="M 150.4 380L 151.2 380.8L 150.4 380z"/>
<path style="stroke:none; fill:#cdddc5" d="M 311.2 380.8L 312 381.6L 311.2 380.8z"/>
<path style="stroke:none; fill:#bcd2b6" d="M 112.534 381.866C 112.178 382.222 113.022 382.178 113.066 382.134C 113.422 381.778 112.578 381.822 112.534 381.866z"/>
<path style="stroke:none; fill:#c5d6bc" d="M 152.8 381.6L 153.6 382.4L 152.8 381.6z"/>
<path style="stroke:none; fill:#c1d3b8" d="M 197.6 381.6L 198.4 382.4L 197.6 381.6z"/>
<path style="stroke:none; fill:#d2e0ce" d="M 238.934 381.866C 238.578 382.222 239.422 382.178 239.466 382.134C 239.822 381.778 238.978 381.822 238.934 381.866z"/>
<path style="stroke:none; fill:#cdddc5" d="M 115.2 382.4L 116 383.2L 115.2 382.4z"/>
<path style="stroke:none; fill:#bcd2b6" d="M 196 382.4L 196.8 383.2L 196 382.4z"/>
<path style="stroke:none; fill:#cdddc5" d="M 120.8 384L 121.6 384.8L 120.8 384z"/>
<path style="stroke:none; fill:#c1d3b8" d="M 158.4 384.8L 159.2 385.6L 158.4 384.8M 192 384.8L 192.8 385.6L 192 384.8z"/>
<path style="stroke:none; fill:#c5d6bc" d="M 226.4 385.6L 227.2 386.4L 226.4 385.6M 224.8 386.4L 225.6 387.2L 224.8 386.4z"/>
<path style="stroke:none; fill:#bcd2b6" d="M 327.2 386.4L 328 387.2L 327.2 386.4z"/>
<path style="stroke:none; fill:#cdddc5" d="M 23.2 387.2L 24 388L 23.2 387.2M 161.6 387.2L 162.4 388L 161.6 387.2z"/>
<path style="stroke:none; fill:#dbe7d4" d="M 222.134 387.466C 221.778 387.822 222.622 387.778 222.666 387.734C 223.022 387.378 222.178 387.422 222.134 387.466z"/>
<path style="stroke:none; fill:#cdddc5" d="M 305.6 387.2L 306.4 388L 305.6 387.2z"/>
<path style="stroke:none; fill:#c1d3b8" d="M 302.4 389.6L 303.2 390.4L 302.4 389.6M 48.8 390.4L 49.6 391.2L 48.8 390.4z"/>
<path style="stroke:none; fill:#cdddc5" d="M 139.2 390.4L 140 391.2L 139.2 390.4z"/>
<path style="stroke:none; fill:#c5d6bc" d="M 300 391.2L 300.8 392L 300 391.2z"/>
<path style="stroke:none; fill:#cdddc5" d="M 143.2 392L 144 392.8L 143.2 392M 181.6 393.6L 182.4 394.4L 181.6 393.6z"/>
<path style="stroke:none; fill:#bcd2b6" d="M 55.2 394.4L 56 395.2L 55.2 394.4z"/>
<path style="stroke:none; fill:#c1d3b8" d="M 148 394.4L 148.8 395.2L 148 394.4z"/>
<path style="stroke:none; fill:#d2e0ce" d="M 171.2 394.4L 171.2 395.2L 180 395.2C 177.254 394.048 174.16 394.4 171.2 394.4z"/>
<path style="stroke:none; fill:#c5d6bc" d="M 200 396L 200.8 396.8L 200 396z"/>
<path style="stroke:none; fill:#cdddc5" d="M 60.8 396.8L 61.6 397.6L 60.8 396.8z"/>
<path style="stroke:none; fill:#d2e0ce" d="M 199.2 396.8L 200 397.6L 199.2 396.8z"/>
<path style="stroke:none; fill:#c1d3b8" d="M 152 397.6L 152.8 398.4L 152 397.6M 316 400L 316.8 400.8L 316 400z"/>
<path style="stroke:none; fill:#c5d6bc" d="M 280 400.8L 280.8 401.6L 280 400.8M 36 401.6L 36.8 402.4L 36 401.6z"/>
<path style="stroke:none; fill:#b3c9a9" d="M 278.134 401.866C 277.778 402.222 278.622 402.178 278.666 402.134C 279.022 401.778 278.178 401.822 278.134 401.866z"/>
<path style="stroke:none; fill:#c5d6bc" d="M 312.8 402.4L 313.6 403.2L 312.8 402.4M 38.4 403.2L 39.2 404L 38.4 403.2z"/>
<path style="stroke:none; fill:#adc8a3" d="M 273.334 403.466C 272.978 403.822 273.822 403.778 273.866 403.734C 274.222 403.378 273.378 403.422 273.334 403.466z"/>
<path style="stroke:none; fill:#cdddc5" d="M 80 404L 80.8 404.8L 80 404M 270.4 404L 271.2 404.8L 270.4 404z"/>
<path style="stroke:none; fill:#abc59f" d="M 268.534 405.066C 268.178 405.422 269.022 405.378 269.066 405.334C 269.422 404.978 268.578 405.022 268.534 405.066z"/>
<path style="stroke:none; fill:#b3c9a9" d="M 155.466 406.134C 155.422 406.178 155.378 407.022 155.734 406.666C 155.778 406.622 155.822 405.778 155.466 406.134z"/>
<path style="stroke:none; fill:#cdddc5" d="M 265.6 405.6L 266.4 406.4L 265.6 405.6z"/>
<path style="stroke:none; fill:#dfebdd" d="M 89.3336 407.466C 88.9776 407.822 89.8224 407.778 89.8664 407.734C 90.2224 407.378 89.3776 407.422 89.3336 407.466z"/>
<path style="stroke:none; fill:#abc59f" d="M 262.134 407.466C 261.778 407.822 262.622 407.778 262.666 407.734C 263.022 407.378 262.178 407.422 262.134 407.466z"/>
<path style="stroke:none; fill:#bcd2b6" d="M 304.8 408L 305.6 408.8L 304.8 408z"/>
<path style="stroke:none; fill:#cdddc5" d="M 46.4 408.8L 47.2 409.6L 46.4 408.8z"/>
<path style="stroke:none; fill:#b3c9a9" d="M 256.534 409.066C 256.178 409.422 257.022 409.378 257.066 409.334C 257.422 408.978 256.578 409.022 256.534 409.066z"/>
<path style="stroke:none; fill:#b8cfad" d="M 250.934 410.666C 250.578 411.022 251.422 410.978 251.466 410.934C 251.822 410.578 250.978 410.622 250.934 410.666z"/>
<path style="stroke:none; fill:#d2e0ce" d="M 50.4 411.2L 51.2 412L 50.4 411.2z"/>
<path style="stroke:none; fill:#c1d3b8" d="M 200 412L 200.8 412.8L 200 412M 297.6 412L 298.4 412.8L 297.6 412z"/>
<path style="stroke:none; fill:#d2e0ce" d="M 53.6 412.8L 54.4 413.6L 53.6 412.8z"/>
<path style="stroke:none; fill:#cdddc5" d="M 109.334 413.066C 108.978 413.422 109.822 413.378 109.866 413.334C 110.222 412.978 109.378 413.022 109.334 413.066z"/>
<path style="stroke:none; fill:#c1d3b8" d="M 149.6 412.8L 150.4 413.6L 149.6 412.8z"/>
<path style="stroke:none; fill:#d2e0ce" d="M 180 412.8L 180.8 413.6L 180 412.8z"/>
<path style="stroke:none; fill:#cdddc5" d="M 241.334 413.066C 240.978 413.422 241.822 413.378 241.866 413.334C 242.222 412.978 241.378 413.022 241.334 413.066M 118.134 414.666C 117.778 415.022 118.622 414.978 118.666 414.934C 119.022 414.578 118.178 414.622 118.134 414.666z"/>
<path style="stroke:none; fill:#e7ede2" d="M 230.4 414.4L 230.4 415.2L 232.8 415.2C 231.802 414.652 231.562 414.601 230.4 414.4z"/>
<path style="stroke:none; fill:#b3c9a9" d="M 233.334 414.666C 232.978 415.022 233.822 414.978 233.866 414.934C 234.222 414.578 233.378 414.622 233.334 414.666z"/>
<path style="stroke:none; fill:#cdddc5" d="M 124.534 415.466C 124.178 415.822 125.022 415.778 125.066 415.734C 125.422 415.378 124.578 415.422 124.534 415.466z"/>
<path style="stroke:none; fill:#adc8a3" d="M 142.134 415.466C 141.778 415.822 142.622 415.778 142.666 415.734C 143.022 415.378 142.178 415.422 142.134 415.466z"/>
<path style="stroke:none; fill:#d2e0ce" d="M 225.6 415.2L 225.6 416L 228 416C 227.002 415.452 226.762 415.401 225.6 415.2z"/>
<path style="stroke:none; fill:#c1d3b8" d="M 128.8 416L 128.8 416.8L 139.2 416.8C 136.033 415.471 132.21 416 128.8 416M 168.8 416L 169.6 416.8L 168.8 416z"/>
<path style="stroke:none; fill:#adc8a3" d="M 213.6 416L 213.6 416.8L 221.6 416.8C 219.07 415.738 216.331 416 213.6 416z"/>
<path style="stroke:none; fill:#e7ede2" d="M 283.734 417.866C 283.378 418.222 284.222 418.178 284.266 418.134C 284.622 417.778 283.778 417.822 283.734 417.866z"/>
<path style="stroke:none; fill:#dfebdd" d="M 277.334 420.266C 276.978 420.622 277.822 420.578 277.866 420.534C 278.222 420.178 277.378 420.222 277.334 420.266z"/>
<path style="stroke:none; fill:#abc59f" d="M 78.1334 421.866C 77.7778 422.222 78.6222 422.178 78.6666 422.134C 79.0222 421.778 78.1778 421.822 78.1334 421.866z"/>
<path style="stroke:none; fill:#c5d6bc" d="M 80 422.4L 80.8 423.2L 80 422.4z"/>
<path style="stroke:none; fill:#adc8a3" d="M 82.9336 423.466C 82.5776 423.822 83.4224 423.778 83.4664 423.734C 83.8224 423.378 82.9776 423.422 82.9336 423.466z"/>
<path style="stroke:none; fill:#cdddc5" d="M 161.6 424L 162.4 424.8L 161.6 424z"/>
<path style="stroke:none; fill:#bcd2b6" d="M 264.8 424L 265.6 424.8L 264.8 424z"/>
<path style="stroke:none; fill:#c5d6bc" d="M 160.8 424.8L 161.6 425.6L 160.8 424.8z"/>
<path style="stroke:none; fill:#d2e0ce" d="M 89.3336 425.866C 88.9776 426.222 89.8224 426.178 89.8664 426.134C 90.2224 425.778 89.3776 425.822 89.3336 425.866z"/>
<path style="stroke:none; fill:#bcd2b6" d="M 159.2 425.6L 160 426.4L 159.2 425.6z"/>
<path style="stroke:none; fill:#cdddc5" d="M 191.2 425.6L 192 426.4L 191.2 425.6z"/>
<path style="stroke:none; fill:#dbe7d4" d="M 260.534 425.866C 260.178 426.222 261.022 426.178 261.066 426.134C 261.422 425.778 260.578 425.822 260.534 425.866z"/>
<path style="stroke:none; fill:#b3c9a9" d="M 95.7336 427.466C 95.3776 427.822 96.2224 427.778 96.2664 427.734C 96.6224 427.378 95.7776 427.422 95.7336 427.466z"/>
<path style="stroke:none; fill:#dbe7d4" d="M 254.934 427.466C 254.578 427.822 255.422 427.778 255.466 427.734C 255.822 427.378 254.978 427.422 254.934 427.466z"/>
<path style="stroke:none; fill:#cdddc5" d="M 98.4 428L 99.2 428.8L 98.4 428z"/>
<path style="stroke:none; fill:#bcd2b6" d="M 252 428L 252.8 428.8L 252 428z"/>
<path style="stroke:none; fill:#cdddc5" d="M 102.134 429.066C 101.778 429.422 102.622 429.378 102.666 429.334C 103.022 428.978 102.178 429.022 102.134 429.066z"/>
<path style="stroke:none; fill:#dbe7d4" d="M 152.534 429.066C 152.178 429.422 153.022 429.378 153.066 429.334C 153.422 428.978 152.578 429.022 152.534 429.066M 248.534 429.066C 248.178 429.422 249.022 429.378 249.066 429.334C 249.422 428.978 248.578 429.022 248.534 429.066z"/>
<path style="stroke:none; fill:#c5d6bc" d="M 105.6 429.6L 106.4 430.4L 105.6 429.6z"/>
<path style="stroke:none; fill:#d2e0ce" d="M 108.8 430.4L 108.8 431.2L 111.2 431.2C 110.202 430.652 109.962 430.601 108.8 430.4z"/>
<path style="stroke:none; fill:#dbe7d4" d="M 146.934 430.666C 146.578 431.022 147.422 430.978 147.466 430.934C 147.822 430.578 146.978 430.622 146.934 430.666z"/>
<path style="stroke:none; fill:#cdddc5" d="M 240.534 430.666C 240.178 431.022 241.022 430.978 241.066 430.934C 241.422 430.578 240.578 430.622 240.534 430.666z"/>
<path style="stroke:none; fill:#dbe7d4" d="M 116.8 432L 116.8 432.8L 119.2 432.8C 118.202 432.252 117.962 432.201 116.8 432z"/>
<path style="stroke:none; fill:#e7ede2" d="M 234.134 432.266C 233.778 432.622 234.622 432.578 234.666 432.534C 235.022 432.178 234.178 432.222 234.134 432.266M 123.2 432.8L 123.2 433.6L 131.2 433.6C 128.67 432.538 125.931 432.8 123.2 432.8z"/>
<path style="stroke:none; fill:#dfebdd" d="M 214.4 432.8L 214.4 433.6L 216.8 433.6C 215.802 433.052 215.562 433.001 214.4 432.8z"/>
<path style="stroke:none; fill:#cdddc5" d="M 216.8 432.8L 216.8 433.6L 228 433.6C 224.626 432.185 220.433 432.8 216.8 432.8z"/>
</g>
</svg>