<?xml version="1.0" standalone="no"?>
<!DOCTYPE svg PUBLIC "-//W3C//DTD SVG 20010904//EN"
 "http://www.w3.org/TR/2001/REC-SVG-20010904/DTD/svg10.dtd">
<svg version="1.0" xmlns="http://www.w3.org/2000/svg"
 width="186.000000pt" height="186.903386pt" viewBox="0 0 186.000000 186.903386"
 preserveAspectRatio="xMidYMid meet">
<metadata>
Created by potrace 1.12, written by Peter Selinger 2001-2015
</metadata>
<g transform="translate(-30.000000,225.538166) scale(0.100000,-0.100000)"
fill="#000000" stroke="none">
<path d="M1187 2250 c-40 -12 -94 -56 -111 -88 -21 -42 -28 -195 -11 -236 8
-19 18 -36 22 -38 5 -1 16 -27 26 -55 18 -51 18 -54 0 -90 -20 -43 -71 -73
-167 -99 -84 -22 -110 -52 -126 -143 -7 -45 -10 -105 -5 -159 6 -78 3 -97 -24
-190 -16 -57 -40 -115 -53 -130 -13 -15 -45 -67 -72 -115 -57 -101 -112 -157
-155 -157 -43 0 -92 20 -130 53 -31 26 -36 28 -46 13 -7 -9 -17 -16 -24 -16
-7 0 -11 -19 -11 -49 0 -44 4 -52 39 -84 25 -22 53 -37 80 -42 39 -6 40 -8 26
-28 -18 -25 -19 -81 -4 -126 7 -21 26 -40 58 -59 46 -27 46 -27 226 -25 157 2
200 7 343 35 l162 32 163 -32 c142 -28 185 -33 342 -35 180 -2 180 -2 226 25
32 19 51 38 58 59 15 45 14 101 -4 126 -14 20 -13 22 26 28 27 5 55 20 80 42
35 32 39 40 39 84 0 30 -4 49 -11 49 -7 0 -17 7 -24 16 -10 15 -15 13 -48 -15
-37 -33 -82 -51 -129 -51 -41 0 -96 55 -148 147 -24 43 -57 95 -73 116 -18 23
-40 76 -58 140 -27 92 -30 111 -24 189 5 54 2 114 -5 159 -16 91 -42 121 -126
143 -96 26 -147 56 -167 99 -18 36 -18 39 0 90 10 28 23 57 30 62 24 20 32 65
26 152 -4 62 -11 98 -26 121 -38 64 -127 102 -190 82z m343 -1156 c37 -154 60
-186 248 -343 40 -34 66 -61 59 -61 -33 0 -76 13 -71 22 14 21 -25 53 -79 66
-52 12 -59 11 -98 -8 -22 -12 -42 -20 -43 -18 -1 2 -19 45 -39 95 -42 105 -46
151 -25 318 12 97 13 99 21 55 5 -25 17 -81 27 -126z m-541 -77 c1 -67 -4 -90
-36 -170 -20 -50 -38 -93 -38 -95 -1 -1 -22 7 -47 18 -42 18 -51 19 -98 7 -53
-14 -85 -41 -76 -64 3 -7 -1 -13 -8 -13 -7 0 -29 -3 -47 -6 l-34 -7 30 24 c54
42 210 182 228 205 28 36 66 146 82 240 8 48 16 89 16 93 5 22 28 -168 28
-232z m-609 -266 c5 -11 10 -25 10 -32 0 -18 -27 7 -33 31 -7 26 9 26 23 1z
m1723 -1 c-6 -24 -33 -49 -33 -31 0 18 19 51 29 51 5 0 7 -9 4 -20z"/>
</g>
</svg>
