<?xml version="1.0" encoding="UTF-8" standalone="no"?>
<!DOCTYPE svg PUBLIC "-//W3C//DTD SVG 1.1//EN" "http://www.w3.org/Graphics/SVG/1.1/DTD/svg11.dtd">
<svg version="1.1" xmlns="http://www.w3.org/2000/svg" xmlns:xlink="http://www.w3.org/1999/xlink" preserveAspectRatio="xMidYMid meet" viewBox="0 0 640 640" width="640" height="640"><defs><path d="M0 550L454 550L454 0L0 0L0 550Z" id="aalp8fRNB"></path><path d="M168.64 80C153.08 101.67 143.6 128.2 155.31 154C169.3 184.79 207.23 197.62 239 193.71C279.52 188.74 304.11 138.38 293.57 101C283.7 65.97 248.59 44.58 213 49.43C192.73 52.19 180.12 64 168.64 80Z" id="aw3WSfc1G"></path><path d="M172.42 115C169.99 126.13 169.91 139.96 176.14 150C189.39 171.34 219.56 174.44 242 170.56C254.12 168.47 261.01 159.46 266.25 149C273.65 134.21 277.7 118.08 271.91 102C263.16 77.69 234.29 65.65 210 69.44C187.37 72.97 176.87 94.7 172.42 115Z" id="ac0hzQZ45"></path><path d="M233.8 499.74C237.42 503.12 238.72 509.17 242.4 513C250.77 521.7 260.59 525.89 272.36 527.57C298.99 531.38 328.57 521.46 353.36 512.86C367.63 507.92 382.28 502.56 394.36 493.18C400.16 488.69 406.26 484.09 410.46 478C419.46 464.95 420.15 445.69 412.36 432C424.25 425.49 425.79 406.34 416.18 397.22C413.01 394.22 409.04 393.86 405.36 391.86C402.41 390.25 399.9 387.75 397.36 385.58C377.34 368.38 361.55 349.37 349.25 326C341.19 310.69 339.56 293.11 333.82 277C324.07 249.63 303.33 222.83 276.36 210.86C230.73 190.62 168.88 206.29 142.82 250C131.91 268.3 128.28 289.29 120.99 309C114.26 327.22 103.74 343.93 91.56 359C85.14 366.94 77.93 374.03 70.79 381.28C67.19 384.93 63.84 389.3 59.36 391.93C55.53 394.18 51.51 392.58 47.36 393.21C41.83 394.06 36.82 398.34 33.98 403.01C28.83 411.47 32.44 422.5 39.13 429.07C41.24 431.15 45.82 432.69 46.7 435.68C47.6 438.69 44.85 443.82 44.53 447C43.77 454.57 44.23 462.94 47.24 470C52.24 481.72 62.99 490.68 73.36 497.64C84.96 505.42 98.27 509.64 111.36 514C132.07 520.9 154.32 527.96 176.36 528C197.25 528.03 223.75 521.45 227.36 497C229.45 497.73 232.14 498.19 233.8 499.74Z" id="a60CixuTEk"></path><path d="M184.57 398.05C218.17 398.05 236.83 398.05 240.57 398.05C251.45 398.05 262.84 397.06 273.57 399.05C276.35 389.65 274.57 377.83 274.57 368.05C274.57 350.33 275.57 332.77 275.57 315.05C275.57 308.33 275.85 301.41 278.28 295.05C279.18 292.72 280.71 289.1 283.57 288.68C287.51 288.1 289.55 294.23 290.4 297.05C293.2 306.38 291.45 317.35 295.89 326.05C308.67 351.04 320.5 378.33 342.57 396.72C349.52 402.52 357.54 405.58 365.57 409.46C374.97 414 398.91 426.36 405.57 413.05C392.77 410.01 382.19 400.69 372.57 392.21C350.37 372.63 332.45 347.51 323.59 319.05C319.29 305.22 316.5 290.29 310.53 277.05C305.03 264.83 297.08 255.02 288.08 245.32C279.7 236.29 269.76 228.28 257.57 224.98C247.98 222.38 237.41 222.94 227.57 223.05C218.83 223.16 209.71 224.44 201.57 227.65C187.18 233.34 173.86 240.64 164.09 253.05C153.97 265.89 150.67 281.91 145.56 297.05C138.17 318.96 129.63 341.62 115.45 360.05C106.7 371.41 97.29 381.59 86.57 391.1C80.84 396.18 74.58 401.9 67.57 405.13C62.59 407.43 57.61 406.05 52.59 407.48C48.6 408.63 46.97 412.41 50.01 415.63C53.3 419.12 59.14 419.38 63.57 418.75C74.01 417.26 84.95 411.81 94.57 407.63C118.95 397.02 134.87 373.9 146.95 351.05C150.75 343.87 153.1 336.13 157.15 329.05C159.15 325.54 161.75 321.94 162.92 318.05C164.47 312.91 164.33 307.29 165.87 302.05C166.63 299.45 167.85 294.34 171.14 293.82C175.47 293.14 177.72 303.13 178.25 306.05C180.92 320.97 182.54 336.92 182.57 352.05C182.59 367.1 182.68 383.12 184.57 398.05M162.57 360.05C159.09 369.01 154.2 378.19 148.66 386.05C144.92 391.35 140.11 396.05 137.57 402.05C146.56 400.91 155.5 399.44 164.57 399.05C164.57 390.65 163.79 382.4 163.58 374.05C163.47 369.47 164.36 364.31 162.57 360.05M293.57 365.05L293.57 400.05C307.97 400.65 315.97 400.98 317.57 401.05C311.75 393.26 305.9 385.25 300.66 377.05C298.14 373.12 296.55 368.65 293.57 365.05M309.57 443.05C314.36 443.71 316.82 445.04 319.57 449.05C324.94 447.36 328.88 443.84 334.57 443.05C332.85 444.89 332 445.4 329.57 446.05C332.75 447.16 334.81 445.75 337.57 444.05C337.47 444.35 336.67 446.75 336.57 447.05C341.54 445.87 347.48 445.39 352.56 446.2C354.65 446.53 358.07 447.94 356.65 450.68C355.58 452.74 352.55 453.62 350.57 454.45C345.01 456.75 339.46 458.57 333.57 459.84C313.94 464.08 294.5 471.09 275.57 477.71C268.07 480.33 250.52 485.65 255.71 497.04C261.45 509.61 283.44 508.12 294.57 506.63C312.83 504.17 330.25 498.93 347.57 492.74C359.58 488.45 371.97 484.26 382.57 477.02C392.45 470.27 404.22 454.04 398.67 441.16C396.26 435.54 384.85 436.11 379.57 434.93C370.23 432.85 361.74 429.05 352.57 426.66C343.79 424.37 334.53 423.26 325.57 421.8C300.08 417.67 274.26 418.14 248.57 417.01C208.8 415.27 168.1 415.63 128.57 420.77C121.71 421.66 114.22 421.72 107.57 423.68C99.31 426.13 92.08 431.02 83.57 433.16C78.29 434.48 68.12 434.64 64.66 439.35C61.99 442.99 62.63 447.92 63.32 452.05C65.25 463.6 72.75 472.88 82.57 478.98C92.36 485.08 103.75 488.91 114.57 492.74C132.28 499.01 149.94 504.17 168.57 506.63C178.52 507.94 195.32 509.15 203.24 501.66C212.68 492.73 203.16 484.26 194.57 480.36C173.8 470.93 149.62 465.07 127.57 459.42C121.49 457.86 115.4 455.72 109.58 453.34C107.71 452.57 104.15 451.01 105.03 448.32C106.21 444.73 114.74 445.97 117.57 446.09C130.82 446.67 144.73 449.23 157.57 452.42C172.3 456.09 188.99 458.35 202.57 465.37C207.83 468.1 213.09 471.41 217.53 475.35C220.33 477.83 222.51 481.45 226.58 481.62C229.7 481.74 235.68 482.23 238.48 480.93C241.32 479.62 243.26 476.51 245.61 474.52C250.04 470.76 255.33 467.51 260.57 465C275.77 457.69 294.11 454.45 310.57 451.05C310.37 449.45 309.67 443.85 309.57 443.05Z" id="e1CdW2yPYN"></path><path d="M312 447C311.8 447 310.8 447 309 447C310.25 448.34 311.25 448.34 312 447Z" id="b4hIUA379"></path><linearGradient id="gradienta2W9qQwHTh" gradientUnits="userSpaceOnUse" x1="310.5" y1="447" x2="310.5" y2="448"><stop style="stop-color: #ffffff;stop-opacity: 1" offset="0%"></stop><stop style="stop-color: #010000;stop-opacity: 1" offset="100%"></stop></linearGradient><path d="M338.14 447L338.14 447L328.33 447L338.14 447Z" id="c77vKDLj3"></path><path d="M350.15 436.21C350.89 440.4 339.06 446 323.75 448.7C308.44 451.4 295.41 450.19 294.67 445.99C293.93 441.8 305.76 436.2 321.07 433.5C336.38 430.8 349.41 432.01 350.15 436.21Z" id="alSLSy15a"></path><path d="M334.84 427.92C335.19 427.84 335.55 428.06 335.64 428.41C336.45 431.83 338.74 441.44 339.55 444.86C339.64 445.21 339.42 445.57 339.06 445.66C338.61 445.76 337.89 445.94 337.43 446.04C337.08 446.13 336.72 445.91 336.63 445.55C335.82 442.13 333.53 432.53 332.72 429.11C332.63 428.75 332.85 428.39 333.21 428.31C333.66 428.2 334.38 428.03 334.84 427.92Z" id="g45EXP78DW"></path></defs><g><g><g><use xlink:href="#aalp8fRNB" opacity="1" fill="#ffffff" fill-opacity="1"></use><g><use xlink:href="#aalp8fRNB" opacity="1" fill-opacity="0" stroke="#000000" stroke-width="1" stroke-opacity="0"></use></g></g><g><use xlink:href="#aw3WSfc1G" opacity="1" fill="#90B482" fill-opacity="1"></use><g><use xlink:href="#aw3WSfc1G" opacity="1" fill-opacity="0" stroke="#000000" stroke-width="1" stroke-opacity="0"></use></g></g><g><use xlink:href="#ac0hzQZ45" opacity="1" fill="#ffffff" fill-opacity="1"></use><g><use xlink:href="#ac0hzQZ45" opacity="1" fill-opacity="0" stroke="#000000" stroke-width="1" stroke-opacity="0"></use></g></g><g><use xlink:href="#a60CixuTEk" opacity="1" fill="#90B482" fill-opacity="1"></use><g><use xlink:href="#a60CixuTEk" opacity="1" fill-opacity="0" stroke="#000000" stroke-width="1" stroke-opacity="0"></use></g></g><g><use xlink:href="#e1CdW2yPYN" opacity="1" fill="#ffffff" fill-opacity="1"></use><g><use xlink:href="#e1CdW2yPYN" opacity="1" fill-opacity="0" stroke="#000000" stroke-width="1" stroke-opacity="0"></use></g></g><g><use xlink:href="#b4hIUA379" opacity="1" fill="url(#gradienta2W9qQwHTh)"></use><g><use xlink:href="#b4hIUA379" opacity="1" fill-opacity="0" stroke="#000000" stroke-width="1" stroke-opacity="0"></use></g></g><g><use xlink:href="#c77vKDLj3" opacity="1" fill="#ffffff" fill-opacity="1"></use></g><g><use xlink:href="#alSLSy15a" opacity="1" fill="#ffffff" fill-opacity="1"></use></g><g><use xlink:href="#g45EXP78DW" opacity="1" fill="#ffffff" fill-opacity="1"></use></g></g></g></svg>